<?xml version="1.0" encoding="utf-8"?>
<!-- Generator: Adobe Illustrator 23.0.2, SVG Export Plug-In . SVG Version: 6.00 Build 0)  -->
<svg version="1.1" id="Layer_1" xmlns="http://www.w3.org/2000/svg" xmlns:xlink="http://www.w3.org/1999/xlink" x="0px" y="0px"
	 viewBox="0 0 48 48" style="enable-background:new 0 0 48 48;" xml:space="preserve">
<style type="text/css">
	.st0{fill:none;}
	.st1{fill:none;stroke:#FFB300;stroke-width:3;stroke-linecap:round;stroke-linejoin:round;stroke-miterlimit:10;}
	.st2{fill:none;stroke:#990000;stroke-width:3;stroke-linecap:round;stroke-linejoin:round;stroke-miterlimit:10;}
	.st3{fill:none;stroke:#FFB300;stroke-width:3;stroke-miterlimit:10;}
</style>
<g>
	<rect class="st0" width="48" height="48"/>
	<line class="st1" x1="9.5" y1="18" x2="14.5" y2="18"/>
	<line class="st2" x1="21" y1="22" x2="27" y2="22"/>
	<line class="st2" x1="21" y1="30" x2="27" y2="30"/>
	<line class="st1" x1="33.5" y1="18" x2="38.5" y2="18"/>
	<line class="st1" x1="29.2" y1="10.9" x2="32" y2="8.1"/>
	<line class="st1" x1="16" y1="8" x2="18.8" y2="10.8"/>
	<line class="st1" x1="9.5" y1="34" x2="14.5" y2="34"/>
	<line class="st1" x1="33.5" y1="34" x2="38.5" y2="34"/>
	<line class="st1" x1="9.5" y1="26" x2="14" y2="26"/>
	<line class="st1" x1="34.2" y1="26" x2="38.7" y2="26"/>
	<path class="st3" d="M14,21c0-5.5,4.5-10,10-10s10,4.5,10,10v10c0,5.5-4.5,10-10,10s-10-4.5-10-10V21z"/>
</g>
</svg>
