<?xml version="1.0" encoding="utf-8"?>
<!-- Generator: Adobe Illustrator 23.0.2, SVG Export Plug-In . SVG Version: 6.00 Build 0)  -->
<svg version="1.1" xmlns="http://www.w3.org/2000/svg" xmlns:xlink="http://www.w3.org/1999/xlink" x="0px" y="0px"
	 viewBox="0 0 88 88" enable-background="new 0 0 88 88" xml:space="preserve">
<g id="Layer_1">
	
		<rect x="24.649" y="34.716" fill="#808080" stroke="#333333" stroke-width="2.6526" stroke-linecap="round" stroke-linejoin="round" stroke-miterlimit="10" width="49.516" height="8.842"/>
	<path fill="#FFFFFF" d="M49.407,72.737c15.148,0,27.411-12.025,27.411-26.88v-3.183H21.997v3.183
		C21.997,60.712,34.259,72.737,49.407,72.737z"/>
	<path fill="#E6E6E6" d="M67.801,42.674c-1.523,13.437-13.125,23.874-27.236,23.874c-3.985,0-7.767-0.839-11.181-2.336
		c5.001,5.245,12.117,8.526,20.024,8.526c15.148,0,27.411-12.025,27.411-26.88v-3.183H67.801z"/>
	<path fill="#FFFFFF" d="M49.407,2C34.259,2,21.997,14.025,21.997,28.88v8.488h54.821V28.88C76.818,14.025,64.555,2,49.407,2z"/>
	<path fill="#E6E6E6" d="M49.407,2c-1.506,0-2.982,0.124-4.421,0.352c13.042,2.071,22.99,13.15,22.99,26.528v8.488h8.842V28.88
		C76.818,14.025,64.555,2,49.407,2z"/>
	
		<line fill="none" stroke="#333333" stroke-width="3.5" stroke-linecap="round" stroke-linejoin="round" stroke-miterlimit="10" x1="58.249" y1="68.316" x2="58.249" y2="86"/>
	
		<line fill="none" stroke="#333333" stroke-width="3.5" stroke-linecap="round" stroke-linejoin="round" stroke-miterlimit="10" x1="40.565" y1="68.316" x2="40.565" y2="86"/>
	<path fill="none" stroke="#333333" stroke-width="2.5" stroke-linecap="round" stroke-linejoin="round" stroke-miterlimit="10" d="
		M49.407,2C34.259,2,21.997,14.025,21.997,28.88v8.488h54.821V28.88C76.818,14.025,64.555,2,49.407,2z"/>
	<path fill="none" stroke="#333333" stroke-width="2.5" stroke-linecap="round" stroke-linejoin="round" stroke-miterlimit="10" d="
		M49.407,72.737c15.148,0,27.411-12.025,27.411-26.88v-3.183H21.997v3.183C21.997,60.712,34.259,72.737,49.407,72.737z"/>
	
		<polygon fill="#FFFFFF" stroke="#333333" stroke-width="2.5" stroke-linecap="round" stroke-linejoin="round" stroke-miterlimit="10" points="
		23.765,75.389 45.87,75.389 45.87,48.863 36.144,42.674 21.997,42.674 	"/>
	
		<path fill="#FFFFFF" stroke="#333333" stroke-width="2.5" stroke-linecap="round" stroke-linejoin="round" stroke-miterlimit="10" d="
		M81.426,55.21l-3.724-12.54v0.004H62.67l-9.726,6.189v26.526h22.989V61.871l1.741-0.164C80.505,60.949,82.184,58.04,81.426,55.21z"
		/>
	
		<circle fill="#FFFFFF" stroke="#333333" stroke-width="2.5" stroke-linecap="round" stroke-linejoin="round" stroke-miterlimit="10" cx="65.323" cy="19.684" r="13.263"/>
	<path fill="#E6E6E6" d="M56.481,19.884h4.421c0-2.505,1.916-4.421,4.421-4.421v-4.421C60.46,11.042,56.481,15.021,56.481,19.884z"
		/>
	
		<circle fill="#FFFFFF" stroke="#333333" stroke-width="2.5" stroke-linecap="round" stroke-linejoin="round" stroke-miterlimit="10" cx="32.607" cy="19.684" r="13.263"/>
	<path fill="#E6E6E6" d="M23.765,19.884h4.421c0-2.505,1.916-4.421,4.421-4.421v-4.421C27.744,11.042,23.765,15.021,23.765,19.884z"
		/>
	
		<rect x="58.249" y="58.589" fill="#FFFFFF" stroke="#333333" stroke-width="1.5" stroke-linecap="round" stroke-linejoin="round" stroke-miterlimit="10" width="12.379" height="10.611"/>
	<rect fill="none" width="88" height="88"/>
</g>
<g id="Layer_3">
	
		<rect x="12.994" y="34.335" fill="#75A4FF" stroke="#333333" stroke-width="2.5" stroke-linecap="round" stroke-linejoin="round" stroke-miterlimit="10" width="28.295" height="31.832"/>
	
		<rect x="19.184" y="31.682" fill="#FFB300" stroke="#333333" stroke-width="2.5" stroke-linecap="round" stroke-linejoin="round" stroke-miterlimit="10" width="15.916" height="5.305"/>
	
		<line fill="none" stroke="#333333" stroke-width="3.5" stroke-linecap="round" stroke-linejoin="round" stroke-miterlimit="10" x1="11.057" y1="50.126" x2="14.303" y2="49.699"/>
</g>
<g id="Layer_2" display="none">
	
		<rect x="62.255" y="33.836" transform="matrix(0.7071 0.7071 -0.7071 0.7071 49.4482 -34.0216)" display="inline" fill="#75A4FF" stroke="#333333" stroke-width="2.5" stroke-linecap="round" stroke-linejoin="round" stroke-miterlimit="10" width="7.074" height="17.684"/>
	
		<polygon display="inline" fill="#FFB300" stroke="#333333" stroke-width="2.5" stroke-linecap="round" stroke-linejoin="round" stroke-miterlimit="10" points="
		54.538,53.933 57.039,46.43 62.04,51.432 	"/>
	
		<line display="inline" fill="none" stroke="#333333" stroke-width="3.5" stroke-linecap="round" stroke-linejoin="round" stroke-miterlimit="10" x1="67.502" y1="42.724" x2="73.754" y2="48.977"/>
	
		<path display="inline" fill="#FFFFFF" stroke="#333333" stroke-width="2.5" stroke-linecap="round" stroke-linejoin="round" stroke-miterlimit="10" d="
		M65.674,53.048l6.878,6.878c2.072,2.072,5.431,2.072,7.503,0c2.072-2.072,2.072-5.431,0-7.503l-6.878-6.878L65.674,53.048z"/>
</g>
</svg>
