<?xml version="1.0" encoding="utf-8"?>
<!-- Generator: Adobe Illustrator 23.0.2, SVG Export Plug-In . SVG Version: 6.00 Build 0)  -->
<svg version="1.1" id="Layer_1" xmlns="http://www.w3.org/2000/svg" xmlns:xlink="http://www.w3.org/1999/xlink" x="0px" y="0px"
	 viewBox="0 0 800 800" style="enable-background:new 0 0 800 800;" xml:space="preserve">
<style type="text/css">
	.st0{fill:none;}
	.st1{fill:none;stroke:#5B8DEF;stroke-width:2;stroke-linecap:round;stroke-linejoin:round;stroke-miterlimit:10;}
	.st2{fill:none;stroke:#9B9B9B;stroke-width:2;stroke-linecap:round;stroke-linejoin:round;stroke-miterlimit:10;}
	.st3{fill:none;stroke:#FFB300;stroke-width:3;stroke-linecap:round;stroke-linejoin:round;stroke-miterlimit:10;}
	.st4{fill:none;stroke:#FFB300;stroke-width:3;stroke-miterlimit:10;}
	.st5{fill:#F06464;}
	.st6{fill:none;stroke:#F06464;stroke-width:3;stroke-miterlimit:10;}
	.st7{fill:none;stroke:#F06464;stroke-width:3;stroke-linecap:round;stroke-miterlimit:10;}
	
		.st8{opacity:0.87;fill:none;stroke:#9B9B9B;stroke-width:1.5;stroke-linecap:round;stroke-linejoin:round;stroke-miterlimit:10;enable-background:new    ;}
	
		.st9{opacity:0.6;fill:none;stroke:#000000;stroke-width:1.5;stroke-linecap:round;stroke-linejoin:round;stroke-miterlimit:10;enable-background:new    ;}
	
		.st10{opacity:0.87;fill:none;stroke:#000000;stroke-width:1.5;stroke-linecap:round;stroke-linejoin:round;stroke-miterlimit:10;enable-background:new    ;}
	
		.st11{opacity:0.87;fill:none;stroke:#5B8DEF;stroke-width:1.5;stroke-linecap:round;stroke-linejoin:round;stroke-miterlimit:10;enable-background:new    ;}
	.st12{fill:#FFB300;}
	.st13{fill:#808080;stroke:#333333;stroke-width:2.6526;stroke-linecap:round;stroke-linejoin:round;stroke-miterlimit:10;}
	.st14{fill:#FFFFFF;}
	.st15{fill:#E6E6E6;}
	.st16{fill:none;stroke:#333333;stroke-width:3.5;stroke-linecap:round;stroke-linejoin:round;stroke-miterlimit:10;}
	.st17{fill:none;stroke:#333333;stroke-width:2.5;stroke-linecap:round;stroke-linejoin:round;stroke-miterlimit:10;}
	.st18{fill:#FFFFFF;stroke:#333333;stroke-width:2.5;stroke-linecap:round;stroke-linejoin:round;stroke-miterlimit:10;}
	.st19{fill:#FFFFFF;stroke:#333333;stroke-width:1.5;stroke-linecap:round;stroke-linejoin:round;stroke-miterlimit:10;}
	.st20{fill:#75A4FF;stroke:#333333;stroke-width:2.5;stroke-linecap:round;stroke-linejoin:round;stroke-miterlimit:10;}
	.st21{fill:#FFB300;stroke:#333333;stroke-width:2.5;stroke-linecap:round;stroke-linejoin:round;stroke-miterlimit:10;}
	.st22{fill:#EFEFEF;}
	.st23{fill:#FFEBEE;}
	.st24{fill:#9B9B9B;}
	.st25{fill:#75A4FF;}
	.st26{fill:#FFECB3;}
	.st27{fill-rule:evenodd;clip-rule:evenodd;fill:#F06464;}
	.st28{enable-background:new    ;}
	.st29{fill-rule:evenodd;clip-rule:evenodd;fill:#9B9B9B;}
	.st30{fill-rule:evenodd;clip-rule:evenodd;fill:#75A4FF;}
	.st31{fill-rule:evenodd;clip-rule:evenodd;fill:#FFB300;}
	.st32{opacity:0.6;enable-background:new    ;}
	.st33{fill:none;stroke:#9B9B9B;stroke-width:1.25;stroke-linecap:round;stroke-linejoin:round;stroke-miterlimit:10;}
	.st34{fill-rule:evenodd;clip-rule:evenodd;fill:#EBEBEB;}
	.st35{fill:#333333;}
	.st36{fill:#5B8DEF;}
	.st37{fill:none;stroke:#16314C;stroke-width:2.5;stroke-linecap:round;stroke-linejoin:round;stroke-miterlimit:10;}
	.st38{fill:#808080;}
	.st39{fill:none;stroke:#333333;stroke-width:3.0435;stroke-linecap:round;stroke-linejoin:round;stroke-miterlimit:10;}
	.st40{opacity:0.3;}
	.st41{fill:#E1F5FE;}
	.st42{fill:#16314C;}
	.st43{fill:#E53935;}
	.st44{fill:#FFD23F;}
	.st45{fill:none;stroke:#16314C;stroke-width:1.5;stroke-linejoin:round;stroke-miterlimit:10;}
	.st46{fill:none;stroke:#16314C;stroke-width:1.5;stroke-linecap:round;stroke-linejoin:round;stroke-miterlimit:10;}
	.st47{fill:none;stroke:#FFB300;stroke-linecap:round;stroke-linejoin:round;stroke-miterlimit:10;}
	.st48{fill:none;stroke:#16314C;stroke-linejoin:round;stroke-miterlimit:10;}
	.st49{fill:none;stroke:#FFB300;stroke-width:1.5;stroke-linecap:round;stroke-linejoin:round;stroke-miterlimit:10;}
</style>
<g>
	<rect class="st0" width="32" height="32"/>
	<polygon class="st1" points="16,5.7 6.3,15 6.3,27 13.3,27 13.3,19.7 18.7,19.7 18.7,27 25.7,27 25.7,15 	"/>
</g>
<g>
	<rect x="32" class="st0" width="32" height="32"/>
	<polyline class="st1" points="38,16 40,16 44,8 48,23.7 52,15.3 54.3,20.7 56,18.7 57.3,18.7 	"/>
</g>
<g>
	<rect x="64" class="st0" width="32" height="32"/>
	<circle class="st1" cx="78.7" cy="14.7" r="9"/>
	<line class="st1" x1="89.7" y1="25.7" x2="85.3" y2="21.7"/>
	<line class="st1" x1="74.7" y1="11.3" x2="80" y2="11.3"/>
	<line class="st1" x1="74" y1="14.3" x2="76.7" y2="14.3"/>
	<line class="st1" x1="74.7" y1="17.3" x2="78.7" y2="17.3"/>
</g>
<g>
	<rect x="96" class="st0" width="32" height="32"/>
	<line class="st1" x1="103.3" y1="8.7" x2="110" y2="8.7"/>
	<line class="st1" x1="103.3" y1="11.7" x2="106.7" y2="11.7"/>
	<line class="st1" x1="103.3" y1="14.7" x2="108" y2="14.7"/>
	<path class="st1" d="M122.3,24.3V22c0,0-2.6-2.3-6.3-2.3s-6.3,2.3-6.3,2.3v2.3"/>
	<circle class="st1" cx="116" cy="13.3" r="2.3"/>
</g>
<g>
	<rect x="128" class="st0" width="32" height="32"/>
	<line class="st1" x1="133.7" y1="9.7" x2="154.3" y2="9.7"/>
	<line class="st1" x1="133.7" y1="16" x2="154.3" y2="16"/>
	<line class="st1" x1="133.7" y1="22.3" x2="154.3" y2="22.3"/>
</g>
<g>
	<rect y="32" class="st0" width="32" height="32"/>
	<polygon class="st2" points="16,37.7 6.3,47 6.3,59 13.3,59 13.3,51.7 18.7,51.7 18.7,59 25.7,59 25.7,47 	"/>
</g>
<g>
	<rect x="32" y="32" class="st0" width="32" height="32"/>
	<polyline class="st2" points="38,48 40,48 44,40 48,55.7 52,47.3 54.3,52.7 56,50.7 57.3,50.7 	"/>
</g>
<g>
	<rect x="64" y="32" class="st0" width="32" height="32"/>
	<circle class="st2" cx="78.7" cy="46.7" r="9"/>
	<line class="st2" x1="89.7" y1="57.7" x2="85.3" y2="53.7"/>
	<line class="st2" x1="74.7" y1="43.3" x2="80" y2="43.3"/>
	<line class="st2" x1="74" y1="46.3" x2="76.7" y2="46.3"/>
	<line class="st2" x1="74.7" y1="49.3" x2="78.7" y2="49.3"/>
</g>
<g>
	<rect x="96" y="32" class="st0" width="32" height="32"/>
	<line class="st2" x1="103.3" y1="40.7" x2="110" y2="40.7"/>
	<line class="st2" x1="103.3" y1="43.7" x2="106.7" y2="43.7"/>
	<line class="st2" x1="103.3" y1="46.7" x2="108" y2="46.7"/>
	<path class="st2" d="M122.3,56.3V54c0,0-2.6-2.3-6.3-2.3s-6.3,2.3-6.3,2.3v2.3"/>
	<circle class="st2" cx="116" cy="45.3" r="2.3"/>
</g>
<g>
	<rect x="128" y="32" class="st0" width="32" height="32"/>
	<line class="st2" x1="133.7" y1="41.7" x2="154.3" y2="41.7"/>
	<line class="st2" x1="133.7" y1="48" x2="154.3" y2="48"/>
	<line class="st2" x1="133.7" y1="54.3" x2="154.3" y2="54.3"/>
</g>
<g>
	<rect x="160" class="st0" width="48" height="48"/>
	<line class="st3" x1="169.5" y1="18" x2="174.5" y2="18"/>
	<line class="st3" x1="193.5" y1="18" x2="198.5" y2="18"/>
	<line class="st3" x1="189.2" y1="10.9" x2="192" y2="8.1"/>
	<line class="st3" x1="176" y1="8" x2="178.8" y2="10.8"/>
	<line class="st3" x1="169.5" y1="34" x2="174.5" y2="34"/>
	<line class="st3" x1="193.5" y1="34" x2="198.5" y2="34"/>
	<line class="st3" x1="169.5" y1="26" x2="174" y2="26"/>
	<line class="st3" x1="194.2" y1="26" x2="198.7" y2="26"/>
	<path class="st4" d="M174,21c0-5.5,4.5-10,10-10s10,4.5,10,10v10c0,5.5-4.5,10-10,10s-10-4.5-10-10V21z"/>
	<path class="st3" d="M187,30c0,0-1.3,0-3,0s-3,0-3,0s1.3,0,3,0S187,30,187,30z"/>
	<path class="st3" d="M187,22c0,0-1.3,0-3,0s-3,0-3,0s1.3,0,3,0S187,22,187,22z"/>
</g>
<g>
	<rect x="208" class="st0" width="48" height="48"/>
	<g>
		<circle class="st5" cx="235.5" cy="26.5" r="1.5"/>
	</g>
	<circle class="st6" cx="232" cy="24" r="15"/>
	<line class="st7" x1="217" y1="24" x2="213.5" y2="24"/>
	<line class="st7" x1="250.5" y1="24" x2="244" y2="24"/>
	<line class="st7" x1="232" y1="36" x2="232" y2="42.5"/>
	<line class="st7" x1="232" y1="5.5" x2="232" y2="9"/>
	<line class="st7" x1="242.6" y1="34.6" x2="245.1" y2="37.1"/>
	<line class="st7" x1="218.9" y1="10.9" x2="221.4" y2="13.4"/>
	<line class="st7" x1="237" y1="18.5" x2="239.5" y2="16"/>
	<line class="st7" x1="225" y1="19" x2="227.5" y2="21.5"/>
	<line class="st7" x1="242.6" y1="13.4" x2="245.1" y2="10.9"/>
	<line class="st7" x1="218.9" y1="37.1" x2="221.4" y2="34.6"/>
</g>
<g>
	<rect y="64" class="st0" width="24" height="24"/>
	<polyline class="st8" points="9.5,82.8 16.2,76 9.5,69.2 	"/>
</g>
<g>
	<rect y="88" class="st0" width="24" height="24"/>
	<polyline class="st9" points="9.5,106.8 16.2,100 9.5,93.2 	"/>
</g>
<g>
	<rect y="112" class="st0" width="14" height="14"/>
	<polyline class="st10" points="5.5,122.9 9.5,119 5.5,115.1 	"/>
</g>
<g>
	<rect x="14" y="112" class="st0" width="14" height="14"/>
	<polyline class="st11" points="19.5,122.9 23.5,119 19.5,115.1 	"/>
</g>
<g>
	<rect y="126" class="st0" width="14" height="14"/>
	<polyline class="st9" points="5.5,136.9 9.5,133 5.5,129.1 	"/>
</g>
<polygon class="st12" points="562,79.5 565.2,77.7 567,72 568.8,77.7 572,79.5 568.9,81.3 567,87 565.2,81.3 "/>
<g>
	<rect x="498.6" y="34.7" class="st13" width="49.5" height="8.8"/>
	<path class="st14" d="M523.4,72.7c15.1,0,27.4-12,27.4-26.9v-3.2H496v3.2C496,60.7,508.3,72.7,523.4,72.7z"/>
	<path class="st15" d="M541.8,42.7c-1.5,13.4-13.1,23.9-27.2,23.9c-4,0-7.8-0.8-11.2-2.3c5,5.2,12.1,8.5,20,8.5
		c15.1,0,27.4-12,27.4-26.9v-3.2L541.8,42.7L541.8,42.7z"/>
	<path class="st14" d="M523.4,2C508.3,2,496,14,496,28.9v8.5h54.8v-8.5C550.8,14,538.6,2,523.4,2z"/>
	<path class="st15" d="M523.4,2c-1.5,0-3,0.1-4.4,0.4c13,2.1,23,13.1,23,26.5v8.5h8.8v-8.5C550.8,14,538.6,2,523.4,2z"/>
	<line class="st16" x1="532.2" y1="68.3" x2="532.2" y2="86"/>
	<line class="st16" x1="514.6" y1="68.3" x2="514.6" y2="86"/>
	<path class="st17" d="M523.4,2C508.3,2,496,14,496,28.9v8.5h54.8v-8.5C550.8,14,538.6,2,523.4,2z"/>
	<path class="st17" d="M523.4,72.7c15.1,0,27.4-12,27.4-26.9v-3.2H496v3.2C496,60.7,508.3,72.7,523.4,72.7z"/>
	<polygon class="st18" points="497.8,75.4 519.9,75.4 519.9,48.9 510.1,42.7 496,42.7 	"/>
	<path class="st18" d="M555.4,55.2l-3.7-12.5l0,0h-15l-9.7,6.2v26.5h23V61.9l1.7-0.2C554.5,60.9,556.2,58,555.4,55.2z"/>
	<circle class="st18" cx="539.3" cy="19.7" r="13.3"/>
	<path class="st15" d="M530.5,19.9h4.4c0-2.5,1.9-4.4,4.4-4.4V11C534.5,11,530.5,15,530.5,19.9z"/>
	
		<ellipse transform="matrix(0.9971 -7.639039e-02 7.639039e-02 0.9971 -2.462061e-02 38.7582)" class="st18" cx="506.6" cy="19.7" rx="13.3" ry="13.3"/>
	<path class="st15" d="M497.8,19.9h4.4c0-2.5,1.9-4.4,4.4-4.4V11C501.7,11,497.8,15,497.8,19.9z"/>
	<rect x="532.2" y="58.6" class="st19" width="12.4" height="10.6"/>
	<rect x="474" class="st0" width="88" height="88"/>
</g>
<g>
	<g>
		
			<rect x="568" y="8.3" transform="matrix(0.8192 -0.5736 0.5736 0.8192 97.5214 332.9773)" class="st20" width="17.7" height="7.1"/>
		<polygon class="st21" points="563.5,20.9 567.3,14 571.3,19.8 		"/>
		<line class="st16" x1="578.4" y1="12" x2="584.7" y2="18.3"/>
		<path class="st18" d="M578.6,24.3l6.9,6.9c2.1,2.1,5.4,2.1,7.5,0s2.1-5.4,0-7.5l-6.9-6.9L578.6,24.3z"/>
	</g>
	<rect x="562" class="st0" width="34" height="34"/>
</g>
<g>
	<g>
		<rect x="566.9" y="38.4" class="st20" width="28.3" height="31.8"/>
		<rect x="573" y="35.8" class="st21" width="15.9" height="5.3"/>
	</g>
	<line class="st16" x1="565" y1="54.3" x2="568.2" y2="53.9"/>
	<rect x="562" y="34" class="st0" width="38" height="38"/>
</g>
<g>
	<rect x="450" y="468.2" class="st0" width="150" height="131.8"/>
	<g>
		<g>
			<ellipse class="st5" cx="484.6" cy="500.9" rx="2.2" ry="2.2"/>
		</g>
		<path class="st5" d="M486.8,491.4c-0.6,0-1.1-0.2-1.6-0.6c-0.9-0.9-0.9-2.2,0-3.1l3.6-3.6c0.9-0.9,2.3-0.9,3.1,0
			c0.9,0.9,0.9,2.2,0,3.1l-3.6,3.6C487.9,491.2,487.3,491.4,486.8,491.4z"/>
		<path class="st5" d="M472.8,495.8c-0.6,0-1.1-0.2-1.6-0.6l-3.6-3.6c-0.9-0.9-0.9-2.2,0-3.1s2.3-0.9,3.1,0l3.6,3.6
			c0.9,0.9,0.9,2.2,0,3.1C473.9,495.6,473.3,495.8,472.8,495.8z"/>
		<path class="st5" d="M506.6,495.1h-3c-0.5-5-2.5-9.6-5.5-13.3l2.2-2.1c0.9-0.9,0.9-2.2,0-3.1s-2.3-0.9-3.1,0l-2.2,2.1
			c-3.7-3.1-8.3-5-13.3-5.5v-3c0-1.2-1-2.2-2.2-2.2s-2.2,1-2.2,2.2v3c-5,0.5-9.6,2.4-13.3,5.5l-2.2-2.2c-0.9-0.9-2.3-0.9-3.1,0
			c-0.9,0.9-0.9,2.2,0,3.1l2.2,2.2c-3.1,3.7-5.1,8.2-5.5,13.3h-3c-1.2,0-2.2,1-2.2,2.2s1,2.2,2.2,2.2h3c0.5,5,2.5,9.6,5.5,13.3
			l-2.2,2.2c-0.9,0.9-0.9,2.2,0,3.1c0.4,0.4,1,0.6,1.6,0.6s1.1-0.2,1.6-0.6l2.2-2.2c3.7,3.1,8.3,5,13.3,5.5v3c0,1.2,1,2.2,2.2,2.2
			s2.2-1,2.2-2.2v-3c5-0.5,9.6-2.4,13.3-5.5l2.2,2.1c0.4,0.4,1,0.6,1.6,0.6s1.1-0.2,1.6-0.6c0.9-0.9,0.9-2.2,0-3.1l-2.2-2.1
			c3.1-3.7,5.1-8.2,5.5-13.3h3c1.2,0,2.2-1,2.2-2.2C508.8,496.1,507.8,495.1,506.6,495.1z M481.6,516.9v-2.1c0-1.2-1-2.2-2.2-2.2
			s-2.2,1-2.2,2.2v2.1c-9.9-1.1-17.6-9.5-17.6-19.6c0-10.9,8.9-19.8,19.9-19.8c10.2,0,18.6,7.7,19.7,17.6h-2.1c-1.2,0-2.2,1-2.2,2.2
			s1,2.2,2.2,2.2h2.1C498.1,508.6,490.8,515.9,481.6,516.9z"/>
	</g>
	<path class="st22" d="M525,581.5c-0.1,0-0.1,0-0.2,0c-38.1-15.9-38.5-48.2-38.5-48.5v-3.2h1v3.2c0,0.3,0.5,31.8,37.7,47.5
		c5-2.1,9.6-4.6,13.7-7.4l0.6,0.8c-4.2,2.9-8.9,5.5-14.1,7.6C525.1,581.5,525.1,581.5,525,581.5z"/>
	<path class="st22" d="M558.5,552l-0.9-0.4c5.1-10.2,5.1-18.5,5.1-18.6v-34L525,487.8l-16,4.8l-0.3-1l16.2-4.8c0.1,0,0.2,0,0.3,0
		l38.2,11.4c0.2,0.1,0.4,0.3,0.4,0.5V533C563.7,533.3,563.7,541.6,558.5,552z"/>
	<g>
		<path class="st12" d="M575.1,565.9c-0.6-0.6-1.5-0.6-2.1,0l-2.2,2.1c-0.3-0.4-0.6-0.8-1-1.1l-2.4-2.4l2.2-2.2
			c0.6-0.6,0.6-1.5,0-2.1s-1.5-0.6-2.1,0l-2.2,2.2l-2.4-2.4c-0.4-0.4-0.7-0.7-1.1-1l2.2-2.1c0.6-0.6,0.6-1.5,0-2.1s-1.5-0.6-2.1,0
			l-2.7,2.7c-2-0.8-4.1-1-6.2-0.6v-3.4c0-0.8-0.7-1.5-1.5-1.5s-1.5,0.7-1.5,1.5v3.9c0,0.1,0,0.3,0.1,0.4c-1.1,0.5-2.2,1.3-3.2,2.2
			c-0.9,0.9-1.7,2-2.2,3.1c-0.1-0.1-0.3-0.1-0.5-0.1h-3.9c-0.8,0-1.5,0.7-1.5,1.5s0.7,1.5,1.5,1.5h3.5c-0.4,2.1-0.2,4.2,0.6,6.2
			l-2.7,2.7c-0.6,0.6-0.6,1.5,0,2.1s1.5,0.6,2.1,0l2.2-2.1c0.3,0.4,0.6,0.8,1,1.1l2.4,2.4l-2.1,2.1c-0.6,0.6-0.6,1.5,0,2.1
			s1.5,0.6,2.1,0l2.1-2.1l2.4,2.4c0.4,0.4,0.7,0.7,1.1,1l-2.2,2.1c-0.6,0.6-0.6,1.5,0,2.1s1.5,0.6,2.1,0l2.7-2.7
			c4.1,1.6,8.9,0.8,12.2-2.5s4.1-8.1,2.5-12.1l2.7-2.7C575.7,567.4,575.7,566.5,575.1,565.9z M567.8,580.8c-3.2,3.2-8.5,3.2-11.8,0
			l-3.5-3.5l0,0l0,0l-3.5-3.5c-3.2-3.2-3.2-8.5,0-11.7s8.5-3.2,11.8,0l6.9,6.9C571.1,572.3,571.1,577.6,567.8,580.8z"/>
		<path class="st12" d="M562.3,571.1l-4.2,4.1c-0.6,0.6-0.6,1.5,0,2.1s1.5,0.6,2.1,0l4.2-4.1c0.6-0.6,0.6-1.5,0-2.1
			S562.9,570.6,562.3,571.1z"/>
		<path class="st12" d="M558.8,565.6c-0.6-0.6-1.5-0.6-2.1,0l-4.2,4.1c-0.6,0.6-0.6,1.5,0,2.1s1.5,0.6,2.1,0l4.2-4.1
			C559.4,567.1,559.4,566.2,558.8,565.6z"/>
	</g>
	<path class="st23" d="M570.7,554.2l-2.8-1.1c1.2-2.9,2.2-5.9,2.9-8.9c0.7-2.6,1.2-5.2,1.6-8.3v-0.1c0.3-1.5,0.3-2.5,0.3-3.1v-44.4
		l-47.7-15l-18.7,5.8l-0.9-2.9l19.1-5.9c0.3-0.1,0.6-0.1,0.9,0l49.3,15.4c0.6,0.2,1.1,0.8,1.1,1.4v45.5c0,0.6,0,1.9-0.3,3.6
		c-0.4,3.3-0.9,6-1.7,8.7C573,548,572,551.1,570.7,554.2z"/>
	<path class="st23" d="M524.9,598.1c-0.2,0-0.5-0.1-0.7-0.2l-0.9-0.4c-14.4-6.3-26-15.1-34.5-26.2c-6-7.8-10.3-16.7-12.9-26.4
		c-0.8-3.5-1.4-6.3-1.7-8.7c-0.1-0.6-0.1-1-0.1-1.5c-0.1-0.9-0.2-1.6-0.2-2.1v-2.9h3v2.9c0,0.3,0.1,1,0.1,1.8c0,0.4,0.1,0.9,0.1,1.5
		c0.3,2.2,0.8,5,1.6,8.3c2.5,9.4,6.6,17.9,12.4,25.3c8.2,10.7,19.4,19.2,33.4,25.3l0.3,0.1l0.2-0.1c6.9-3,13.2-6.6,18.7-10.8
		l1.8,2.4c-5.7,4.3-12.1,8-19.2,11.1l-0.8,0.4C525.3,598.1,525.1,598.1,524.9,598.1z"/>
</g>
<g>
	<rect y="468" class="st0" width="150" height="132"/>
	<g>
		<path class="st24" d="M29.4,490.5h-3v-2c0-0.7,0.4-1.2,1.1-1.4l1.9-0.6l0.9,2.9l-0.9,0.3V490.5z"/>
		<path class="st24" d="M69.8,593.4l-3.6-1.9l1.4-2.7l3.5,1.8L69.8,593.4z M63.6,590l-1.3-0.8c-0.3-0.2-0.6-0.4-0.9-0.5l-1.3-0.8
			l1.6-2.5l1.3,0.8c0.3,0.2,0.6,0.3,0.8,0.5l1.3,0.8L63.6,590z M57.6,586.1l-1.2-0.9c-0.3-0.2-0.5-0.4-0.8-0.6l-1.2-0.9l1.8-2.4
			l1.2,0.9c0.3,0.2,0.5,0.4,0.8,0.6l1.2,0.9L57.6,586.1z M52,581.8l-1.1-1c-0.3-0.2-0.5-0.5-0.8-0.7l-1.1-1l2-2.2l1.1,1
			c0.2,0.2,0.5,0.4,0.7,0.6l1.1,1L52,581.8z M46.8,577l-1-1.1c-0.2-0.2-0.5-0.5-0.7-0.7l-1-1.1l2.2-2l1,1.1c0.2,0.2,0.4,0.5,0.7,0.7
			l1,1.1L46.8,577z M42,571.7l-0.9-1.2c-0.2-0.3-0.4-0.5-0.6-0.8l-0.9-1.2l2.4-1.8l0.9,1.2c0.2,0.3,0.4,0.5,0.6,0.8l0.9,1.2
			L42,571.7z M37.8,565.9l-0.8-1.3c-0.2-0.3-0.4-0.6-0.5-0.9l-0.8-1.3l2.6-1.6l0.8,1.3c0.2,0.3,0.3,0.6,0.5,0.8l0.8,1.3L37.8,565.9z
			 M34.2,559.8l-0.7-1.3c-0.2-0.3-0.3-0.6-0.4-0.9l-0.7-1.4l2.7-1.3l0.7,1.4c0.1,0.3,0.3,0.6,0.4,0.9l0.7,1.3L34.2,559.8z
			 M31.2,553.3l-0.5-1.4c-0.1-0.3-0.2-0.6-0.4-1l-0.5-1.4l2.8-1l0.5,1.4c0.1,0.3,0.2,0.6,0.3,0.9l0.5,1.4L31.2,553.3z M28.8,546.6
			l-0.4-1.4c-0.1-0.3-0.2-0.7-0.3-1l-0.4-1.5l2.9-0.7l0.4,1.5c0.1,0.3,0.2,0.6,0.2,0.9l0.4,1.4L28.8,546.6z M27.2,539.6l-0.2-1.5
			c-0.1-0.4-0.1-0.7-0.1-1l-0.2-1.5l3-0.4l0.2,1.5c0,0.3,0.1,0.6,0.1,1l0.2,1.5L27.2,539.6z M29.4,532.4h-3v-4h3V532.4z M29.4,525.4
			h-3v-4h3V525.4z M29.4,518.5h-3v-4h3V518.5z M29.4,511.5h-3v-4h3V511.5z M29.4,504.5h-3v-4h3V504.5z M29.4,497.5h-3v-4h3V497.5z"
			/>
		<path class="st24" d="M75,595.6c-0.2,0-0.4,0-0.6-0.1l-1.8-0.8l1.2-2.7l1.2,0.5l1.2-0.5l1.2,2.7l-1.8,0.8
			C75.4,595.6,75.2,595.6,75,595.6z"/>
		<path class="st24" d="M80.2,593.4l-1.4-2.7l1.3-0.7c0.3-0.2,0.6-0.3,0.9-0.5l1.3-0.7l1.4,2.6l-1.3,0.7c-0.3,0.2-0.6,0.3-0.9,0.5
			L80.2,593.4z M86.4,590l-1.6-2.6l3.4-2.1l1.6,2.5L86.4,590z M92.4,586.1l-1.8-2.4l1.2-0.9c0.3-0.2,0.5-0.4,0.8-0.6l1.2-0.9
			l1.8,2.4l-1.2,0.9c-0.3,0.2-0.5,0.4-0.8,0.6L92.4,586.1z M98,581.8l-2-2.3l1.1-1c0.2-0.2,0.5-0.4,0.7-0.7l1.1-1l2,2.2l-1.1,1
			c-0.2,0.2-0.5,0.5-0.8,0.7L98,581.8z M103.2,577l-2.2-2.1l1-1.1c0.2-0.2,0.4-0.5,0.7-0.7l1-1.1l2.2,2l-1,1.1
			c-0.2,0.2-0.5,0.5-0.7,0.7L103.2,577z M108,571.6l-2.4-1.8l0.9-1.2c0.2-0.3,0.4-0.5,0.6-0.8l0.9-1.2l2.4,1.8l-0.9,1.2
			c-0.2,0.3-0.4,0.5-0.6,0.8L108,571.6z M112.2,565.9l-2.5-1.6l0.8-1.3c0.2-0.3,0.3-0.6,0.5-0.8l0.8-1.3l2.6,1.6l-0.8,1.3
			c-0.2,0.3-0.4,0.6-0.5,0.9L112.2,565.9z M115.8,559.8l-2.7-1.3l0.7-1.3c0.1-0.3,0.3-0.6,0.4-0.9l0.7-1.4l2.7,1.3l-0.7,1.4
			c-0.1,0.3-0.3,0.6-0.4,0.9L115.8,559.8z M118.8,553.3l-2.8-1.1l0.5-1.4c0.1-0.3,0.2-0.6,0.3-0.9l0.5-1.4l2.8,1l-0.5,1.4
			c-0.1,0.3-0.2,0.6-0.4,1L118.8,553.3z M121.2,546.6l-2.9-0.8l0.4-1.4c0.1-0.3,0.2-0.6,0.2-0.9l0.4-1.5l2.9,0.7l-0.4,1.5
			c-0.1,0.3-0.2,0.7-0.3,1L121.2,546.6z M122.8,539.6l-3-0.5l0.2-1.5c0.1-0.3,0.1-0.7,0.1-1l0.2-1.5l3,0.4l-0.2,1.5
			c0,0.3-0.1,0.7-0.1,1L122.8,539.6z M123.6,532.4h-3v-4h3V532.4z M123.6,525.4h-3v-4h3V525.4z M123.6,518.4h-3v-4h3V518.4z
			 M123.6,511.5h-3v-4h3V511.5z M123.6,504.5h-3v-4h3V504.5z M123.6,497.5h-3v-4h3V497.5z"/>
		<path class="st24" d="M123.6,490.5h-3v-0.9l-0.9-0.3l0.9-2.9l1.9,0.6c0.6,0.2,1.1,0.8,1.1,1.4V490.5z"/>
		<path class="st24" d="M116.8,488.5l-3.8-1.2l0.9-2.9l3.8,1.2L116.8,488.5z M33.2,488.5l-0.9-2.9l3.8-1.2l0.9,2.9L33.2,488.5z
			 M39.9,486.4l-0.9-2.9l3.8-1.2l0.9,2.9L39.9,486.4z M110.1,486.4l-3.8-1.2l0.9-2.9l3.8,1.2L110.1,486.4z M46.6,484.3l-0.9-2.9
			l3.8-1.2l0.9,2.9L46.6,484.3z M103.4,484.3l-3.8-1.2l0.9-2.9l3.8,1.2L103.4,484.3z M96.6,482.2l-3.8-1.2l0.9-2.9l3.8,1.2
			L96.6,482.2z M53.4,482.2l-0.9-2.9l3.8-1.2l0.9,2.9L53.4,482.2z M89.9,480.1l-3.8-1.2L87,476l3.8,1.2L89.9,480.1z M60.1,480.1
			l-0.9-2.9L63,476l0.9,2.9L60.1,480.1z M66.8,478l-0.9-2.9l3.8-1.2l0.9,2.9L66.8,478z M83.2,478l-3.8-1.2l0.9-2.9l3.8,1.2L83.2,478
			z M73.5,475.9l-0.9-2.9l1.9-0.6c0.3-0.1,0.6-0.1,0.9,0l1.9,0.6l-0.9,2.9l-1.5-0.5L73.5,475.9z"/>
	</g>
	<path class="st22" d="M75,581.4c-0.1,0-0.1,0-0.2,0c-19.9-8.3-29.3-21.1-33.7-30.3c-4.8-10-4.8-17.9-4.8-18.3v-34.3
		c0-0.2,0.1-0.4,0.4-0.5l38.2-11.4c0.1,0,0.2,0,0.3,0l38.2,11.4c0.2,0.1,0.4,0.3,0.4,0.5v34.3c0,0.3-0.4,32.6-38.5,48.6
		C75.1,581.4,75.1,581.4,75,581.4z M37.3,498.9v33.9c0,0.3,0.5,31.9,37.7,47.6c19.4-8.2,28.7-20.7,33-29.7
		c4.7-9.8,4.8-17.8,4.8-17.9v-33.9L75,487.6L37.3,498.9z"/>
</g>
<g>
	<rect x="150" y="468" class="st0" width="150" height="132"/>
	<path class="st25" d="M224.9,598.1c-0.2,0-0.5-0.1-0.7-0.2l-0.9-0.4c-14.4-6.3-26-15.1-34.5-26.2c-6-7.8-10.3-16.7-12.9-26.5
		c-0.8-3.5-1.4-6.4-1.7-8.7c-0.1-0.6-0.1-1-0.1-1.5c-0.1-0.9-0.2-1.6-0.2-2.1v-45.6c0-0.7,0.4-1.2,1.1-1.4l49.6-15.4
		c0.3-0.1,0.6-0.1,0.9,0l49.3,15.4c0.6,0.2,1.1,0.8,1.1,1.4v45.6c0,0.6,0,1.9-0.3,3.6c-0.4,3.3-0.9,6-1.7,8.7
		c-2.3,9.3-6.7,18.2-12.9,26.5c-8.5,11.1-20.1,20-34.6,26.3l-0.8,0.4C225.3,598.1,225.1,598.1,224.9,598.1z M176.9,488v44.5
		c0,0.3,0.1,1,0.1,1.8c0,0.4,0.1,0.9,0.1,1.5c0.3,2.2,0.8,5,1.6,8.3c2.5,9.4,6.6,17.9,12.4,25.4c8.2,10.7,19.4,19.2,33.4,25.4
		l0.3,0.1l0.2-0.1c14-6.2,25.3-14.7,33.4-25.4c6-7.9,10.1-16.4,12.4-25.4c0.7-2.6,1.2-5.2,1.6-8.3v-0.1c0.3-1.5,0.3-2.5,0.3-3.1V488
		L225,473.1L176.9,488z"/>
	<path class="st22" d="M225,581.4c-0.1,0-0.1,0-0.2,0c-19.9-8.3-29.3-21.1-33.7-30.3c-4.8-10-4.8-17.9-4.8-18.3v-34.3
		c0-0.2,0.1-0.4,0.4-0.5l38.2-11.4c0.1,0,0.2,0,0.3,0l38.2,11.4c0.2,0.1,0.4,0.3,0.4,0.5v34.3c0,0.3-0.4,32.6-38.5,48.6
		C225.1,581.4,225.1,581.4,225,581.4z M187.3,498.9v33.9c0,0.3,0.5,31.9,37.7,47.6c19.5-8.2,28.7-20.7,33-29.7
		c4.7-9.8,4.7-17.8,4.7-17.8V499L225,487.6L187.3,498.9z"/>
</g>
<g>
	<rect x="300" y="468" class="st0" width="150" height="132"/>
	<path class="st22" d="M375,581.4c-0.1,0-0.1,0-0.2,0c-19.9-8.3-29.3-21.1-33.7-30.3c-4.8-10-4.8-17.9-4.8-18.3v-34.3
		c0-0.2,0.1-0.4,0.4-0.5l38.2-11.4c0.1,0,0.2,0,0.3,0l38.2,11.4c0.2,0.1,0.4,0.3,0.4,0.5v34.3c0,0.4-0.1,8.7-5.2,19.1l-0.9-0.4
		c5-10.2,5.1-18.5,5.1-18.6V499L375,487.6l-37.7,11.3v33.9c0,0.3,0.5,31.9,37.7,47.6c5-2.1,9.6-4.6,13.7-7.4l0.6,0.8
		c-4.2,2.9-8.9,5.5-14.1,7.6C375.1,581.4,375.1,581.4,375,581.4z"/>
	<path class="st26" d="M374.9,598.1c-0.2,0-0.5-0.1-0.7-0.2l-0.9-0.4c-14.4-6.3-26-15.1-34.5-26.2c-6-7.8-10.3-16.7-12.9-26.5
		c-0.8-3.5-1.4-6.4-1.7-8.7c-0.1-0.6-0.1-1-0.1-1.5c-0.1-0.9-0.2-1.6-0.2-2.1v-45.6c0-0.7,0.4-1.2,1.1-1.4l49.6-15.4
		c0.3-0.1,0.6-0.1,0.9,0l49.3,15.4c0.6,0.2,1.1,0.8,1.1,1.4v45.6c0,0.6,0,1.9-0.3,3.6c-0.4,3.3-0.9,6-1.7,8.7
		c-0.8,3.1-1.8,6.2-3.1,9.3L418,553c1.2-2.9,2.2-5.9,2.9-8.9c0.7-2.6,1.2-5.2,1.6-8.3v-0.1c0.3-1.5,0.3-2.5,0.3-3.1V488L375,473.1
		L326.9,488v44.5c0,0.3,0.1,1,0.1,1.8c0,0.4,0.1,0.9,0.1,1.5c0.3,2.2,0.8,5,1.6,8.3c2.5,9.4,6.6,17.9,12.4,25.4
		c8.2,10.7,19.4,19.2,33.4,25.4l0.3,0.1l0.2-0.1c6.9-3,13.2-6.7,18.7-10.8l1.8,2.4c-5.7,4.3-12.1,8-19.2,11.1l-0.8,0.4
		C375.3,598.1,375.1,598.1,374.9,598.1z"/>
	<g>
		<path class="st12" d="M425.1,566.2c-0.6-0.6-1.5-0.6-2.1,0l-2.2,2.2c-0.3-0.4-0.6-0.8-1-1.1l-2.4-2.4l2.2-2.2
			c0.6-0.6,0.6-1.5,0-2.1s-1.5-0.6-2.1,0l-2.2,2.2l-2.4-2.4c-0.4-0.4-0.7-0.7-1.1-1l2.2-2.2c0.6-0.6,0.6-1.5,0-2.1s-1.5-0.6-2.1,0
			l-2.7,2.7c-2-0.8-4.1-1-6.2-0.6v-3.4c0-0.8-0.7-1.5-1.5-1.5s-1.5,0.7-1.5,1.5v3.9c0,0.1,0,0.3,0.1,0.4c-1.1,0.5-2.2,1.3-3.2,2.2
			c-0.9,0.9-1.7,2-2.2,3.1c-0.1-0.1-0.3-0.1-0.5-0.1h-3.9c-0.8,0-1.5,0.7-1.5,1.5s0.7,1.5,1.5,1.5h3.5c-0.4,2.1-0.2,4.2,0.6,6.2
			l-2.7,2.7c-0.6,0.6-0.6,1.5,0,2.1s1.5,0.6,2.1,0l2.2-2.2c0.3,0.4,0.6,0.8,1,1.1l2.4,2.4l-2.1,2.1c-0.6,0.6-0.6,1.5,0,2.1
			s1.5,0.6,2.1,0l2.1-2.1l2.4,2.4c0.4,0.4,0.7,0.7,1.1,1l-2.2,2.2c-0.6,0.6-0.6,1.5,0,2.1s1.5,0.6,2.1,0l2.7-2.7
			c4.1,1.6,8.9,0.8,12.2-2.5c3.3-3.3,4.1-8.1,2.5-12.2l2.7-2.7C425.7,567.7,425.7,566.7,425.1,566.2z M417.8,581.1
			c-3.2,3.2-8.5,3.2-11.8,0l-6.9-6.9c-3.2-3.2-3.2-8.5,0-11.8c3.2-3.2,8.5-3.2,11.8,0l6.9,6.9C421.1,572.5,421.1,577.8,417.8,581.1z
			"/>
		<path class="st12" d="M414.4,573.4l-4.2,4.2c-0.6,0.6-1.5,0.6-2.1,0s-0.6-1.5,0-2.1l4.2-4.2c0.6-0.6,1.5-0.6,2.1,0
			C414.9,571.9,414.9,572.9,414.4,573.4z"/>
		<path class="st12" d="M408.8,567.9l-4.2,4.2c-0.6,0.6-1.5,0.6-2.1,0s-0.6-1.5,0-2.1l4.2-4.2c0.6-0.6,1.5-0.6,2.1,0
			S409.4,567.3,408.8,567.9z"/>
	</g>
</g>
<g>
	<path class="st27" d="M270,468l-27-8l-27,8v-40h54V468z"/>
	<g class="st28">
		<path class="st14" d="M229.4,442.2v-1.4h6.3v1.4H229.4z M235.4,445.3c0,1.6-1.1,2.6-2.7,2.6s-2.7-1.1-2.7-2.6
			c0-1.6,1.1-2.6,2.7-2.6C234.4,442.7,235.4,443.8,235.4,445.3z M230.7,440v-1.5h3.9v1.5H230.7z M233.9,445.3c0-0.8-0.5-1.3-1.1-1.3
			c-0.7,0-1.1,0.5-1.1,1.3s0.5,1.3,1.1,1.3C233.4,446.6,233.9,446.1,233.9,445.3z M240.5,451h-1.7v-6.2h-1v5.9h-1.6v-12.5h1.7v5h1
			V438h1.7L240.5,451L240.5,451z"/>
		<path class="st14" d="M248.9,443.7c0.9,1.2,1.9,2.3,3.2,3.1l-1.2,1.2c-1.1-0.8-2.1-1.8-2.9-3c-1,1.3-2.2,2.5-3.6,3.3l-1.2-1.1
			c3.2-1.9,4.9-4.9,5.1-6.8c-0.9,0-1.8,0-2.7,0h-1.5v-1.5h2.2c1.2,0,2.4,0,3.9,0C250.2,440.6,249.7,442.2,248.9,443.7z M252.3,438
			h1.7v13h-1.7V438z"/>
	</g>
</g>
<g>
	<path class="st29" d="M108,468l-27-8l-27,8v-40h54V468z"/>
	<g class="st28">
		<path class="st14" d="M70.4,445.5v-6.8h1.7v2.1H77v-2.1h1.7v6.8h-3.3v2.1h5.1v1.4h-12v-1.4h5.1v-2.1H70.4z M77,442.2h-4.9v1.9H77
			V442.2z"/>
		<path class="st14" d="M86.2,447.2v3.7h-1.7v-3.7h-3.2v-1.4h12v1.4h-2.9v3.7h-1.7v-3.7H86.2z M83.2,444.7v-3.8h6.6v-1h-6.6v-1.5
			h8.3v3.8h-6.6v1h7v1.4h-8.7L83.2,444.7L83.2,444.7z"/>
	</g>
</g>
<g>
	<path class="st30" d="M162,468l-27-8l-27,8v-40h54V468z"/>
	<g class="st28">
		<path class="st14" d="M121.5,446.5V445h12v1.4h-2.9v4.4h-1.7v-4.4h-2.5v4.4h-1.7v-4.4h-3.2L121.5,446.5L121.5,446.5z M132,441.2
			c0,1.5-1.6,2.9-4.4,2.9c-2.8,0-4.4-1.4-4.4-2.9c0-1.6,1.6-3,4.4-3C130.4,438.3,132,439.7,132,441.2z M130.2,441.2
			c0-0.8-0.7-1.5-2.6-1.5s-2.5,0.7-2.5,1.5s0.7,1.5,2.5,1.5C129.5,442.7,130.2,442,130.2,441.2z"/>
		<path class="st14" d="M140.9,443.7c0.9,1.2,1.9,2.3,3.2,3.1l-1.2,1.2c-1.1-0.8-2.1-1.8-2.9-3c-1,1.3-2.2,2.5-3.6,3.3l-1.2-1.1
			c3.2-1.9,4.9-4.9,5.1-6.8c-0.9,0-1.8,0-2.7,0h-1.5v-1.5h2.2c1.2,0,2.4,0,3.9,0C142.2,440.6,141.7,442.2,140.9,443.7z M144.3,438
			h1.7v13h-1.7V438z"/>
	</g>
</g>
<g>
	<path class="st31" d="M216,468l-27-8l-27,8v-40h54V468z"/>
	<g class="st28">
		<path class="st14" d="M187.6,449.1h-12v-1.4h5.2v-2.6h1.8v2.6h5.1v1.4H187.6z M183,442.5c1.2,0.7,2.3,1.2,4,1.8l-1.1,1.3
			c-1.5-0.6-2.8-1.3-4.1-2.1c-1.3,0.9-2.9,1.7-4.6,2.3l-1.1-1.3c3.3-1,6-2.9,6.6-3.9c-0.5,0-1.6,0-2.6,0h-2.7v-1.5h3.8
			c1.2,0,2.5,0,4.1,0C185,440.4,184.2,441.5,183,442.5z"/>
		<path class="st14" d="M190.1,438.6h2.1c1.2,0,2.5,0,3.8,0c-0.1,1.4-0.6,2.6-1.3,3.6c0.8,0.9,1.8,1.6,2.8,2l-1,1.2
			c-1-0.5-1.9-1.2-2.7-2.1c-0.9,1-2.1,1.8-3.5,2.4l-1.1-1.2c2.9-1.2,4.5-3.1,4.7-4.4c-0.8,0-1.6,0-2.3,0h-1.5V438.6L190.1,438.6z
			 M195.8,445.8c2.9,0,4.4,1.2,4.4,2.6c0,1.5-1.5,2.6-4.4,2.6s-4.3-1.1-4.3-2.6C191.4,447,192.9,445.8,195.8,445.8z M195.8,447.2
			c-1.9,0-2.6,0.6-2.6,1.2s0.7,1.2,2.6,1.2s2.6-0.6,2.6-1.2C198.4,447.8,197.7,447.2,195.8,447.2z M196.3,442.4V441h2v-3h1.7v7.8
			h-1.7v-3.3h-2V442.4z"/>
	</g>
</g>
<g>
	<rect x="24" y="64" class="st0" width="24" height="24"/>
	<path class="st32" d="M43.2,75.2H31.1l5.5-5.5c0.3-0.3,0.3-0.8,0-1.1s-0.8-0.3-1.1,0l-6.8,6.8c-0.1,0.1-0.1,0.2-0.2,0.2
		c-0.1,0.2-0.1,0.4,0,0.6c0,0.1,0.1,0.2,0.2,0.2l6.8,6.8c0.1,0.1,0.3,0.2,0.5,0.2s0.4-0.1,0.5-0.2c0.3-0.3,0.3-0.8,0-1.1L31,76.6
		h12.2c0.4,0,0.8-0.3,0.8-0.8S43.7,75.2,43.2,75.2z"/>
</g>
<g>
	<rect x="24" y="88" class="st0" width="24" height="24"/>
	<path class="st14" d="M43.2,99.2H31.1l5.5-5.5c0.3-0.3,0.3-0.8,0-1.1s-0.8-0.3-1.1,0l-6.8,6.8c-0.1,0.1-0.1,0.2-0.2,0.2
		c-0.1,0.2-0.1,0.4,0,0.6c0,0.1,0.1,0.2,0.2,0.2l6.8,6.8c0.1,0.1,0.3,0.2,0.5,0.2s0.4-0.1,0.5-0.2c0.3-0.3,0.3-0.8,0-1.1l-5.5-5.5
		h12.2c0.4,0,0.8-0.3,0.8-0.8S43.7,99.2,43.2,99.2z"/>
</g>
<g>
	<rect x="48" y="64" class="st0" width="24" height="24"/>
	<path class="st32" d="M66,80c-0.7,0-1.3,0.3-1.7,0.7l-7.8-4.2c0-0.2,0-0.3,0-0.5s0-0.3,0-0.5l7.8-4.2c0.4,0.4,1.1,0.7,1.7,0.7
		c1.4,0,2.5-1.1,2.5-2.5S67.4,67,66,67s-2.5,1.1-2.5,2.5c0,0.2,0,0.3,0,0.5l-7.8,4.2c-0.4-0.4-1.1-0.7-1.7-0.7
		c-1.4,0-2.5,1.1-2.5,2.5s1.1,2.5,2.5,2.5c0.7,0,1.3-0.3,1.7-0.7l7.8,4.2c0,0.2,0,0.3,0,0.5c0,1.4,1.1,2.5,2.5,2.5s2.5-1.1,2.5-2.5
		S67.4,80,66,80z"/>
</g>
<g>
	<rect x="48" y="88" class="st0" width="24" height="24"/>
	<path class="st14" d="M66,104c-0.7,0-1.3,0.3-1.7,0.7l-7.8-4.2c0-0.2,0-0.3,0-0.5s0-0.3,0-0.5l7.8-4.2c0.4,0.4,1.1,0.7,1.7,0.7
		c1.4,0,2.5-1.1,2.5-2.5S67.4,91,66,91s-2.5,1.1-2.5,2.5c0,0.2,0,0.3,0,0.5l-7.8,4.2c-0.4-0.4-1.1-0.7-1.7-0.7
		c-1.4,0-2.5,1.1-2.5,2.5s1.1,2.5,2.5,2.5c0.7,0,1.3-0.3,1.7-0.7l7.8,4.2c0,0.2,0,0.3,0,0.5c0,1.4,1.1,2.5,2.5,2.5s2.5-1.1,2.5-2.5
		S67.4,104,66,104z"/>
</g>
<g>
	<rect x="72" y="88" class="st0" width="24" height="24"/>
	<g>
		<path class="st14" d="M84,90c-5.5,0-10,4.5-10,10s4.5,10,10,10s10-4.5,10-10S89.5,90,84,90z M84,106c-0.4,0-0.8-0.3-0.8-0.8
			s0.3-0.8,0.8-0.8s0.8,0.3,0.8,0.8S84.4,106,84,106z M86,101.1c-0.8,0.6-1.3,0.9-1.3,1.6c0,0.4-0.3,0.8-0.8,0.8s-0.8-0.3-0.8-0.8
			c0-1.5,1-2.2,1.9-2.8c0.9-0.6,1.4-1.1,1.4-1.9c0-1.4-1.1-2.5-2.5-2.5s-2.5,1.1-2.5,2.5c0,0.4-0.3,0.8-0.8,0.8S80,98.4,80,98
			c0-2.2,1.8-4,4-4s4,1.8,4,4C88,99.7,86.9,100.5,86,101.1z"/>
	</g>
</g>
<g>
	<rect x="72" y="64" class="st0" width="20" height="20"/>
	<circle class="st24" cx="82" cy="78.4" r="0.6"/>
	<path class="st33" d="M79.3,72.3c0-1.5,1.2-2.7,2.7-2.7s2.7,1.2,2.7,2.7c0,2.1-2.7,2.1-2.7,4"/>
	<g>
		<path class="st24" d="M82,66.9c3.9,0,7.1,3.2,7.1,7.1s-3.2,7.1-7.1,7.1s-7.1-3.2-7.1-7.1S78.1,66.9,82,66.9 M82,65.7
			c-4.6,0-8.3,3.7-8.3,8.3s3.7,8.3,8.3,8.3s8.3-3.7,8.3-8.3S86.6,65.7,82,65.7L82,65.7z"/>
	</g>
</g>
<g>
	<rect y="140" class="st0" width="16" height="16"/>
	<path id="a" class="st24" d="M4,150.2v1.8h1.8l5.2-5.2L9.2,145L4,150.2z M12.9,145.1c0.2-0.2,0.2-0.5,0-0.7l-1.2-1.2
		c-0.2-0.2-0.5-0.2-0.7,0l-0.9,0.9L12,146L12.9,145.1L12.9,145.1z"/>
</g>
<g>
	<rect x="16" y="140" class="st0" width="16" height="16"/>
	<path id="a_1_" class="st25" d="M20,150.2v1.8h1.8l5.2-5.2l-1.8-1.8L20,150.2z M28.9,145.1c0.2-0.2,0.2-0.5,0-0.7l-1.2-1.2
		c-0.2-0.2-0.5-0.2-0.7,0l-0.9,0.9L28,146L28.9,145.1L28.9,145.1z"/>
</g>
<g>
	<rect x="32" y="140" class="st0" width="16" height="16"/>
	<path id="a_2_" class="st12" d="M36,150.2v1.8h1.8l5.2-5.2l-1.8-1.8L36,150.2z M44.8,145.1c0.2-0.2,0.2-0.5,0-0.7l-1.2-1.2
		c-0.2-0.2-0.5-0.2-0.7,0l-0.9,0.9l1.9,1.9L44.8,145.1L44.8,145.1z"/>
</g>
<g>
	<rect x="48" y="140" class="st0" width="16" height="16"/>
	<path id="a_3_" class="st5" d="M52,150.2v1.8h1.8l5.2-5.2l-1.8-1.8L52,150.2z M60.8,145.1c0.2-0.2,0.2-0.5,0-0.7l-1.2-1.2
		c-0.2-0.2-0.5-0.2-0.7,0l-0.9,0.9l1.9,1.9L60.8,145.1L60.8,145.1z"/>
</g>
<g>
	<g>
		<path class="st34" d="M54,468l-27-8l-27,8v-40h54V468z"/>
	</g>
	<g>
		<path class="st24" d="M25.7,446.6c0-0.8,0.1-1.4,0.3-1.7c0.2-0.3,0.6-0.8,1.2-1.3c0.4-0.4,0.8-0.8,1-1.2s0.4-0.8,0.4-1.3
			s-0.1-1-0.4-1.2c-0.3-0.3-0.7-0.4-1.2-0.4s-0.8,0.1-1.2,0.4s-0.5,0.6-0.5,1.1h-1.9l0,0c0-1,0.3-1.8,1-2.3c0.7-0.6,1.6-0.8,2.6-0.8
			c1.2,0,2.1,0.3,2.7,0.9c0.7,0.6,1,1.4,1,2.5c0,0.7-0.2,1.4-0.6,2s-0.9,1.1-1.5,1.6c-0.3,0.3-0.5,0.5-0.6,0.8
			c-0.1,0.2-0.1,0.6-0.1,1.1h-2.2C25.7,446.8,25.7,446.6,25.7,446.6z M27.7,450h-2.1v-1.9h2.1V450z"/>
	</g>
</g>
<g>
	<rect x="480" y="88" class="st14" width="120" height="94"/>
	<path class="st35" d="M565.5,177.4h-51c-1.1,0-2-0.9-2-2s0.9-2,2-2h51c1.1,0,2,0.9,2,2S566.6,177.4,565.5,177.4z"/>
	<path class="st35" d="M542,114.3V99.1c0-1.1-0.9-2-2-2s-2,0.9-2,2v15.2c-24.8,1-44.6,21.4-44.6,46.2v14c0,1.1,0.9,2,2,2s2-0.9,2-2
		v-14c0-23.3,19.1-42.3,42.6-42.3s42.6,19,42.6,42.3v14c0,1.1,0.9,2,2,2s2-0.9,2-2v-14C586.6,135.7,566.8,115.4,542,114.3z"/>
	<g>
		<path class="st36" d="M567.3,168.9c-12.9,0-23.4-10.5-23.4-23.4s10.5-23.4,23.4-23.4s23.4,10.5,23.4,23.4S580.2,168.9,567.3,168.9
			z"/>
	</g>
	<g>
		<path class="st36" d="M512.4,168.9c-12.9,0-23.4-10.5-23.4-23.4s10.5-23.4,23.4-23.4c12.9,0,23.4,10.5,23.4,23.4
			S525.4,168.9,512.4,168.9z"/>
	</g>
	<g>
		<path class="st35" d="M540,104.3c-3.3,0-6-2.7-6-6s2.7-6,6-6s6,2.7,6,6C546,101.6,543.3,104.3,540,104.3z"/>
		<circle class="st14" cx="540" cy="98.3" r="2.2"/>
	</g>
	<path class="st14" d="M512.4,126c-10.7,0-19.4,8.7-19.4,19.4s8.7,19.4,19.4,19.4c10.7,0,19.4-8.7,19.4-19.4
		C531.9,134.7,523.2,126,512.4,126z"/>
	<circle class="st14" cx="567.3" cy="145.4" r="19.4"/>
</g>
<g>
	<rect x="96" y="64" class="st0" width="24" height="24"/>
	<path class="st12" d="M115.9,72.6h-0.5l0.4-1.6c0.2-0.6-0.2-1.2-0.8-1.4c-0.6-0.2-1.2,0.2-1.4,0.8l-0.6,2.2h-3.3l-0.7-2.2
		c-0.2-0.5-0.6-0.8-1.1-0.8s-0.9,0.3-1.1,0.8l-0.7,2.2h-3.3l-0.6-2.2c-0.2-0.6-0.8-1-1.4-0.8s-1,0.8-0.8,1.4l0.4,1.6h-0.5
		c-0.6,0-1.1,0.5-1.1,1.1s0.5,1.1,1.1,1.1h1.1l2,7.4c0.1,0.5,0.6,0.8,1.1,0.8s0.9-0.3,1.1-0.8l2.5-7.5h0.4l2.5,7.5
		c0.2,0.5,0.6,0.8,1.1,0.8l0,0c0.5,0,0.9-0.4,1.1-0.8l2-7.4h1.1c0.6,0,1.1-0.5,1.1-1.1S116.5,72.6,115.9,72.6z M104.4,78.1l-0.9-3.2
		h1.9L104.4,78.1z M111.6,78.1l-1.1-3.2h1.9L111.6,78.1z"/>
</g>
<g>
	<rect x="120" y="64" class="st0" width="24" height="24"/>
	<path class="st1" d="M139.1,83.1v-1V81c0-1.8-4.6-3.1-7.1-3.1l0,0c-2.5,0-7.1,1.3-7.1,3.1v1.1v1"/>
	<circle class="st1" cx="132" cy="72" r="2.9"/>
</g>
<g>
	<rect x="144" y="64" class="st14" width="24" height="24"/>
	<polyline class="st37" points="148.5,81 152.2,70.5 156,81 	"/>
	<line class="st37" x1="159.8" y1="70.5" x2="159.8" y2="81"/>
	<line class="st37" x1="163.5" y1="70.5" x2="163.5" y2="81"/>
	<line class="st37" x1="155.1" y1="78.5" x2="149.4" y2="78.5"/>
</g>
<g>
	<path class="st35" d="M656.3,41.8h-42.6c-0.6,0-1.1-0.5-1.1-1.1V33c0-0.6,0.5-1.1,1.1-1.1h42.6c0.6,0,1.1,0.5,1.1,1.1v7.6
		C657.4,41.2,656.9,41.8,656.3,41.8z"/>
	<rect x="614.8" y="34.2" class="st38" width="40.3" height="5.3"/>
	<path class="st35" d="M658.6,36.4h-47.2c-0.6,0-1.1-0.5-1.1-1.1V28c0-13.4,11.1-24.3,24.7-24.3s24.7,10.9,24.7,24.3v7.3
		C659.7,35.9,659.2,36.4,658.6,36.4z"/>
	<path class="st14" d="M612.6,34.2h44.9V28c0-12.1-10-22-22.4-22s-22.4,9.9-22.4,22L612.6,34.2L612.6,34.2z"/>
	<path class="st15" d="M635,6c-0.1,0-0.2,0-0.2,0c9.4,3,16.2,11.7,16.2,22v6.2h6.5V28C657.4,15.9,647.4,6,635,6z"/>
	<path class="st35" d="M648.7,32.6c-6.9,0-12.6-5.6-12.6-12.6s5.6-12.6,12.6-12.6c6.9,0,12.6,5.6,12.6,12.6S655.6,32.6,648.7,32.6z"
		/>
	<circle class="st14" cx="648.7" cy="20.1" r="10.3"/>
	<path class="st15" d="M641.1,20.2h3.8c0-2.1,1.7-3.8,3.8-3.8v-3.8C644.5,12.6,641.1,16.1,641.1,20.2z"/>
	<path class="st35" d="M620.5,32.6c-6.9,0-12.6-5.6-12.6-12.6s5.6-12.6,12.6-12.6S633.1,13,633.1,20S627.5,32.6,620.5,32.6z"/>
	<circle class="st14" cx="620.5" cy="20.1" r="10.3"/>
	<path class="st15" d="M612.9,20.2h3.8c0-2.1,1.7-3.8,3.8-3.8v-3.8C616.4,12.6,612.9,16.1,612.9,20.2z"/>
	<path class="st35" d="M635,66.9c-13.6,0-24.7-10.9-24.7-24.3v-2.7c0-0.6,0.5-1.1,1.1-1.1h47.2c0.6,0,1.1,0.5,1.1,1.1v2.7
		C659.7,56,648.6,66.9,635,66.9z"/>
	<path class="st14" d="M612.6,41v1.6c0,12.1,10,22,22.4,22s22.4-9.9,22.4-22V41H612.6z"/>
	<path class="st15" d="M627.4,60.4c-2.4,0-4.6-0.3-6.8-1c3.9,3.2,8.9,5.2,14.4,5.2c12.4,0,22.4-9.9,22.4-22V41h-6.8
		C648.8,52,639.2,60.4,627.4,60.4z"/>
	<polyline class="st39" points="611,40.6 604.3,45.5 615.5,45.5 	"/>
	<path class="st35" d="M668.5,47h-67c-0.6,0-1.1,0.5-1.1,1.1v48.7c0,0.6,0.5,1.1,1.1,1.1h67c0.6,0,1.1-0.5,1.1-1.1V48.2
		C669.6,47.6,669.1,47,668.5,47z"/>
	<rect x="602.7" y="49.3" class="st38" width="64.7" height="3.8"/>
	<rect x="600" class="st0" width="70" height="98"/>
</g>
<g>
	<g class="st40">
		<path class="st23" d="M707.4,6.2c0.7,0,1.3,0.2,1.7,0.7c1,1,1,2.5,0,3.4L696.5,23l12.7,12.7c1,1,1,2.5,0,3.5
			c-0.5,0.5-1.1,0.7-1.7,0.7c-0.7,0-1.3-0.2-1.7-0.7L693,26.5l-12.7,12.6c-0.5,0.5-1.1,0.7-1.7,0.7s-1.3-0.2-1.7-0.7
			c-1-1-1-2.5,0-3.5L689.5,23l-12.7-12.6c-1-1-1-2.5,0-3.4c0.5-0.5,1.1-0.7,1.7-0.7c0.7,0,1.3,0.2,1.7,0.7L693,19.5l12.7-12.6
			C706.1,6.4,706.7,6.2,707.4,6.2 M707.4,4.5c-1.1,0-2.1,0.4-2.9,1.2L693,17.2L681.5,5.8c-0.7-0.7-1.8-1.2-2.9-1.2s-2.1,0.4-2.9,1.2
			c-0.7,0.7-1.2,1.8-1.2,2.9s0.4,2.1,1.2,2.9L687.2,23l-11.5,11.5c-0.7,0.7-1.2,1.8-1.2,2.9s0.4,2.1,1.2,2.9
			c0.7,0.7,1.8,1.2,2.9,1.2s2.1-0.4,2.9-1.2L693,28.8l11.5,11.5c0.7,0.7,1.8,1.2,2.9,1.2s2.1-0.4,2.9-1.2c0.7-0.7,1.2-1.8,1.2-2.9
			s-0.4-2.1-1.2-2.9L698.8,23l11.5-11.5c0.7-0.7,1.2-1.8,1.2-2.9s-0.4-2.1-1.2-2.9S708.4,4.5,707.4,4.5L707.4,4.5z"/>
	</g>
	<g>
		<path class="st14" d="M707.4,39.4c-0.6,0-1.1-0.2-1.5-0.6l-12.9-13l-12.9,12.9c-0.4,0.4-0.9,0.6-1.5,0.6s-1.1-0.2-1.5-0.6
			c-0.4-0.4-0.6-0.9-0.6-1.5s0.2-1.1,0.6-1.5l13-12.8L677.2,10c-0.4-0.4-0.6-0.9-0.6-1.5s0.2-1.1,0.6-1.5c0.4-0.4,0.9-0.6,1.5-0.6
			s1.1,0.2,1.5,0.6L693,20l12.9-12.9c0.4-0.4,0.9-0.6,1.5-0.6s1.1,0.2,1.5,0.6s0.6,0.9,0.6,1.5s-0.2,1.1-0.6,1.5l-13,12.8l12.9,12.9
			c0.4,0.4,0.6,0.9,0.6,1.5s-0.2,1.1-0.6,1.5C708.4,39.2,708,39.4,707.4,39.4z"/>
		<path class="st5" d="M707.4,7c0.4,0,0.8,0.2,1.2,0.5c0.7,0.7,0.7,1.6,0,2.3L695.3,23l13.2,13.2c0.7,0.7,0.7,1.6,0,2.3
			c-0.3,0.3-0.7,0.5-1.2,0.5s-0.8-0.2-1.2-0.5L693,25.3l-13.2,13.2c-0.3,0.3-0.7,0.5-1.2,0.5s-0.8-0.2-1.2-0.5
			c-0.7-0.7-0.7-1.6,0-2.3L690.7,23L677.5,9.8c-0.7-0.7-0.7-1.6,0-2.3c0.3-0.3,0.7-0.5,1.2-0.5s0.8,0.2,1.2,0.5L693,20.7l13.2-13.2
			C706.6,7.1,707,7,707.4,7 M707.4,6.2c-0.7,0-1.3,0.2-1.7,0.7L693,19.5L680.3,6.9c-0.5-0.5-1.1-0.7-1.7-0.7s-1.3,0.2-1.7,0.7
			c-1,1-1,2.5,0,3.4L689.5,23l-12.7,12.7c-1,1-1,2.5,0,3.5c0.5,0.5,1.1,0.7,1.7,0.7c0.7,0,1.3-0.2,1.7-0.7L693,26.5l12.7,12.6
			c0.5,0.5,1.1,0.7,1.7,0.7s1.3-0.2,1.7-0.7c1-1,1-2.5,0-3.5L696.5,23l12.7-12.6c1-1,1-2.5,0-3.4C708.7,6.4,708,6.2,707.4,6.2
			L707.4,6.2z"/>
	</g>
	<rect x="670" class="st0" width="46" height="46"/>
</g>
<g>
	<rect x="670" y="46" class="st0" width="46" height="46"/>
	<g class="st40">
		<g>
			<g>
				<path class="st41" d="M693,51.8c9.5,0,17.2,7.7,17.2,17.2s-7.7,17.2-17.2,17.2s-17.2-7.7-17.2-17.2S683.5,51.8,693,51.8
					 M693,81.3c6.8,0,12.3-5.5,12.3-12.3s-5.5-12.3-12.3-12.3s-12.3,5.5-12.3,12.3S686.2,81.3,693,81.3 M693,50.1
					c-10.4,0-18.9,8.5-18.9,18.9s8.5,18.9,18.9,18.9s18.9-8.5,18.9-18.9S703.4,50.1,693,50.1L693,50.1z M693,79.7
					c-5.9,0-10.7-4.8-10.7-10.7s4.8-10.7,10.7-10.7s10.7,4.8,10.7,10.7S698.9,79.7,693,79.7L693,79.7z"/>
			</g>
		</g>
	</g>
	<g>
		<g>
			<path class="st14" d="M693,85.8c-9.3,0-16.8-7.6-16.8-16.8s7.6-16.8,16.8-16.8s16.8,7.6,16.8,16.8S702.3,85.8,693,85.8z
				 M693,56.3c-7,0-12.7,5.8-12.7,12.7S686,81.7,693,81.7S705.7,76,705.7,69S700,56.3,693,56.3z"/>
			<path class="st25" d="M693,52.6c9,0,16.4,7.4,16.4,16.4S702,85.4,693,85.4S676.6,78,676.6,69S684,52.6,693,52.6 M693,82.1
				c7.2,0,13.1-5.9,13.1-13.1s-5.9-13.1-13.1-13.1s-13.1,5.9-13.1,13.1S685.8,82.1,693,82.1 M693,51.8c-9.5,0-17.2,7.7-17.2,17.2
				s7.7,17.2,17.2,17.2s17.2-7.7,17.2-17.2S702.5,51.8,693,51.8L693,51.8z M693,81.3c-6.8,0-12.3-5.5-12.3-12.3s5.5-12.3,12.3-12.3
				s12.3,5.5,12.3,12.3S699.8,81.3,693,81.3L693,81.3z"/>
		</g>
	</g>
</g>
<g>
	<rect x="760.7" y="101.9" class="st35" width="2" height="14"/>
	<path class="st35" d="M779,77.7c-9,0-16.3,7.3-16.3,16.3v28h32.7V94C795.2,85,788,77.7,779,77.7L779,77.7z"/>
	<path class="st14" d="M779,79.7c7.9,0,14.3,6.4,14.3,14.3v26h-28.6V94C764.7,86.1,771,79.7,779,79.7"/>
	<path class="st15" d="M785.1,81.1c3.9,3,6.3,7.6,6.3,12.9v26h1.8V94C793.2,88.3,789.9,83.4,785.1,81.1z"/>
	<rect x="795.3" y="101.9" class="st35" width="2" height="14"/>
	<rect x="774.3" y="97.1" class="st35" width="9.3" height="1.6"/>
	<path class="st35" d="M788.2,79.2c-4.7,0-8.6,3.8-8.6,8.6s3.8,8.6,8.6,8.6s8.6-3.8,8.6-8.6S793,79.2,788.2,79.2L788.2,79.2z"/>
	<path class="st35" d="M769.7,79.2c-4.7,0-8.6,3.8-8.6,8.6s3.8,8.6,8.6,8.6s8.6-3.8,8.6-8.6S774.3,79.2,769.7,79.2L769.7,79.2z"/>
	<path class="st14" d="M769.7,81.2c3.6,0,6.6,2.9,6.6,6.6s-2.9,6.6-6.6,6.6c-3.6,0-6.6-2.9-6.6-6.6S766,81.2,769.7,81.2"/>
	<path class="st15" d="M765,87.8h2.3c0-1.3,1-2.3,2.3-2.3v-2.3C767,83.1,765,85.2,765,87.8z"/>
	<path class="st14" d="M788.2,81.2c3.6,0,6.6,2.9,6.6,6.6s-2.9,6.6-6.6,6.6s-6.6-2.9-6.6-6.6S784.7,81.2,788.2,81.2"/>
	<path class="st15" d="M783.7,87.8h2.3c0-1.3,1-2.3,2.3-2.3v-2.3C785.8,83.1,783.7,85.2,783.7,87.8z"/>
	<path class="st35" d="M795.3,98.7h-10.1l-6.2,4.7l-5.8-4.7h-10.6v21.8h32.7L795.3,98.7L795.3,98.7z"/>
	<polyline class="st14" points="793.3,100.7 793.3,118.5 764.7,118.5 764.7,100.7 772.5,100.7 777.8,104.9 779,105.9 780.2,105 
		785.8,100.7 793.3,100.7 	"/>
	<path class="st35" d="M792.1,98.7h-6.2v7h-14v-7h-6.2v7h-3.1V122h32.7v-16.3h-3.2V98.7L792.1,98.7z"/>
	<polyline class="st25" points="790.2,100.7 790.2,105.7 790.2,107.7 792.2,107.7 793.3,107.7 793.3,120 764.7,120 764.7,107.7 
		765.8,107.7 767.8,107.7 767.8,105.7 767.8,100.7 770,100.7 770,105.7 770,107.7 772,107.7 786,107.7 788,107.7 788,105.7 
		788,100.7 790.2,100.7 	"/>
	<polygon class="st36" points="791.5,107.7 791.5,120 793.3,120 793.3,107.7 792.2,107.7 	"/>
	<rect x="785.2" y="109.6" class="st14" width="7.8" height="3.9"/>
	<polygon class="st42" points="779.8,107.2 778.2,107.2 777.5,110.3 777.5,111.9 780.5,111.9 780.5,110.3 	"/>
	<rect x="758" y="61" class="st0" width="42" height="61"/>
</g>
<g>
	<path class="st35" d="M779,16.7c-9,0-16.3,7.3-16.3,16.3v28h32.7V33C795.3,24,788,16.7,779,16.7L779,16.7z"/>
	<path class="st14" d="M779,18.7c7.9,0,14.3,6.4,14.3,14.3v26h-28.6V33C764.7,25.1,771.1,18.7,779,18.7"/>
	<path class="st15" d="M785.2,20.1c3.9,3,6.3,7.6,6.3,12.9v26h1.8V33C793.3,27.3,790,22.4,785.2,20.1z"/>
	<rect x="760.7" y="40.9" class="st35" width="2" height="14"/>
	<rect x="795.4" y="40.9" class="st35" width="2" height="14"/>
	<rect x="774.4" y="36.1" class="st35" width="9.3" height="1.6"/>
	<path class="st35" d="M788.3,18.2c-4.7,0-8.6,3.8-8.6,8.6s3.8,8.6,8.6,8.6s8.6-3.8,8.6-8.6S793.1,18.2,788.3,18.2L788.3,18.2z"/>
	<path class="st35" d="M769.7,18.2c-4.7,0-8.6,3.8-8.6,8.6s3.8,8.6,8.6,8.6s8.6-3.8,8.6-8.6S774.4,18.2,769.7,18.2L769.7,18.2z"/>
	<path class="st14" d="M769.7,20.2c3.6,0,6.6,2.9,6.6,6.6s-2.9,6.6-6.6,6.6c-3.6,0-6.6-2.9-6.6-6.6S766.1,20.2,769.7,20.2"/>
	<path class="st15" d="M765,26.8h2.3c0-1.3,1-2.3,2.3-2.3v-2.3C767.1,22.1,765,24.2,765,26.8z"/>
	<path class="st14" d="M788.3,20.2c3.6,0,6.6,2.9,6.6,6.6s-2.9,6.6-6.6,6.6s-6.6-2.9-6.6-6.6S784.7,20.2,788.3,20.2"/>
	<path class="st15" d="M783.7,26.8h2.3c0-1.3,1-2.3,2.3-2.3v-2.3C785.8,22.1,783.7,24.2,783.7,26.8z"/>
	<polygon class="st35" points="781.4,48.6 783.7,41.6 774.4,41.6 776.7,48.6 776.6,48.6 775,54.8 778.9,59.5 782.8,54.8 781.3,48.6 
			"/>
	<path class="st35" d="M763.7,35.9l-2.7,7.3l15.3,5.6l2.7-7.3L763.7,35.9L763.7,35.9z"/>
	<polyline class="st14" points="764.9,38.4 776.5,42.6 775.2,46.1 763.6,42 764.9,38.4 	"/>
	<path class="st35" d="M794.3,35.9L779,41.5l2.7,7.3l15.3-5.6L794.3,35.9L794.3,35.9z"/>
	<rect x="758" class="st0" width="42" height="61"/>
	<polyline class="st14" points="793.1,38.4 794.4,41.9 782.8,46.1 781.5,42.6 793.1,38.4 	"/>
</g>
<g>
	<path class="st35" d="M781.3,128.6h-4.7c-7.7,0-14,4.7-14,12.4c0,0,0,5.2,0,5.4h32.6c0-0.3,0-5.4,0-5.4
		C795.3,133.3,789,128.6,781.3,128.6z"/>
	<path class="st43" d="M793.3,144.5h-28.6c0-1.1,0-2.4,0-3.4c0-7.2,6.2-10.4,12-10.4h4.6c5.8,0,12,3.2,12,10.3
		C793.3,142,793.3,143.4,793.3,144.5z"/>
	<path class="st35" d="M799.2,143.7h-40.4V160h40.4V143.7L799.2,143.7z"/>
	<polyline class="st43" points="797.2,145.7 797.2,158 760.8,158 760.8,145.7 797.2,145.7 	"/>
	<rect x="760.7" y="162.9" class="st35" width="2" height="14"/>
	<path class="st35" d="M779,138.7c-9,0-16.3,7.3-16.3,16.3v28h32.7v-28C795.2,146,788,138.7,779,138.7L779,138.7z"/>
	<path class="st14" d="M779,140.7c7.9,0,14.3,6.4,14.3,14.3v26h-28.6v-26C764.7,147.1,771,140.7,779,140.7"/>
	<path class="st15" d="M785.1,142.1c3.9,3,6.3,7.6,6.3,12.9v26h1.8v-26C793.2,149.3,789.9,144.4,785.1,142.1z"/>
	<rect x="795.3" y="162.9" class="st35" width="2" height="14"/>
	<rect x="774.3" y="158.1" class="st35" width="9.3" height="1.6"/>
	<rect x="774.4" y="158.1" class="st35" width="9.3" height="1.6"/>
	<path class="st35" d="M796.1,140.2h-34.2c-1.7,0-3.1,1.4-3.1,3.1l0,0c0,1.7,1.4,3.1,3.1,3.1h34.2c1.7,0,3.1-1.4,3.1-3.1l0,0
		C799.2,141.6,797.8,140.2,796.1,140.2L796.1,140.2z"/>
	<path class="st35" d="M779,126.6L779,126.6c-2.4,0-4.3,1.6-4.3,3.7v6.7c0,2,1.9,3.7,4.3,3.7l0,0c2.4,0,4.3-1.6,4.3-3.7v-6.7
		C783.3,128.3,781.4,126.6,779,126.6L779,126.6z"/>
	<rect x="762.7" y="161.2" class="st35" width="32.7" height="21.8"/>
	<polyline class="st5" points="793.3,163.2 793.3,181 764.7,181 764.7,163.2 793.3,163.2 	"/>
	<rect x="775.9" y="163.2" class="st43" width="6.2" height="17.8"/>
	<rect x="772.8" y="166.7" class="st44" width="12.4" height="4.7"/>
	<rect x="758" y="122" class="st0" width="42" height="61"/>
	<path class="st5" d="M779,128.6c1.2,0,2.3,0.8,2.3,1.7v6.7c0,0.9-1.1,1.7-2.3,1.7s-2.3-0.8-2.3-1.7v-6.7
		C776.7,129.4,777.8,128.6,779,128.6"/>
	<path class="st5" d="M796.1,142.2c0.6,0,1.1,0.5,1.1,1.1s-0.5,1.1-1.1,1.1h-34.2c-0.6,0-1.1-0.5-1.1-1.1s0.5-1.1,1.1-1.1H796.1"/>
	<path class="st35" d="M788.2,140.2c-4.7,0-8.6,3.8-8.6,8.6s3.8,8.6,8.6,8.6s8.6-3.8,8.6-8.6S793,140.2,788.2,140.2L788.2,140.2z"/>
	<path class="st35" d="M769.7,140.2c-4.7,0-8.6,3.8-8.6,8.6s3.8,8.6,8.6,8.6s8.6-3.8,8.6-8.6S774.3,140.2,769.7,140.2L769.7,140.2z"
		/>
	<path class="st14" d="M769.7,142.2c3.6,0,6.6,2.9,6.6,6.6s-2.9,6.6-6.6,6.6c-3.6,0-6.6-2.9-6.6-6.6S766,142.2,769.7,142.2"/>
	<path class="st15" d="M765,148.8h2.3c0-1.3,1-2.3,2.3-2.3v-2.3C767,144.1,765,146.2,765,148.8z"/>
	<path class="st14" d="M788.2,142.2c3.6,0,6.6,2.9,6.6,6.6s-2.9,6.6-6.6,6.6s-6.6-2.9-6.6-6.6S784.7,142.2,788.2,142.2"/>
	<path class="st15" d="M783.7,148.8h2.3c0-1.3,1-2.3,2.3-2.3v-2.3C785.8,144.1,783.7,146.2,783.7,148.8z"/>
	<path class="st35" d="M779,133.4c-4.7,0-6,4.7-6,4.7s2,8,6,8s6-8,6-8S783.7,133.4,779,133.4L779,133.4z"/>
	<path class="st44" d="M779,135.4c2.4,0,3.5,1.8,3.9,2.7c-0.8,2.6-2.4,5.9-3.9,5.9s-3.2-3.3-3.9-5.9
		C775.5,137.3,776.6,135.4,779,135.4"/>
</g>
<g>
	<rect x="16" y="156" class="st0" width="16" height="16"/>
	<polygon class="st45" points="24,167.1 27.4,168.9 26.8,165.1 29.5,162.4 25.7,161.9 24,158.4 22.3,161.9 18.5,162.4 21.2,165.1 
		20.6,168.9 	"/>
</g>
<g>
	<rect x="32" y="156" class="st0" width="16" height="16"/>
	<polyline class="st46" points="45.8,160.8 40.8,165.8 38.2,163.2 34.5,167 	"/>
	<polyline class="st46" points="42.8,160.8 45.8,160.8 45.8,163.8 	"/>
</g>
<g>
	<rect x="48" y="156" class="st0" width="16" height="16"/>
	<path class="st47" d="M61.2,164.8c-0.4,2.5-2.6,4.5-5.2,4.5c-2.9,0-5.2-2.4-5.2-5.2s2.4-5.2,5.2-5.2c2.2,0,4.1,1.3,4.9,3.2"/>
	<polyline class="st47" points="61.2,159.5 61.2,162 58.8,162 	"/>
	<line class="st47" x1="55.8" y1="164.4" x2="58.2" y2="165.8"/>
	<line class="st47" x1="55.8" y1="161.8" x2="55.8" y2="164.4"/>
</g>
<g>
	<rect x="64" y="156" class="st0" width="16" height="16"/>
	<g>
		<circle class="st42" cx="66" cy="166.8" r="1.2"/>
	</g>
	<g>
		<circle class="st42" cx="70.8" cy="162" r="1.2"/>
	</g>
	<g>
		<circle class="st42" cx="74" cy="165.2" r="1.2"/>
	</g>
	<g>
		<circle class="st42" cx="78" cy="161.2" r="1.2"/>
	</g>
	<polyline class="st48" points="66,166.8 70.8,162 74,165.2 78,161.2 	"/>
</g>
<g>
	<rect x="0" y="156" class="st0" width="16" height="16"/>
	<polyline class="st49" points="12.5,160.5 10.5,168 8,160.5 5.5,168 3.5,160.5 	"/>
	<line class="st49" x1="2.8" y1="162.5" x2="13.2" y2="162.5"/>
</g>
</svg>
