<?xml version="1.0" encoding="utf-8"?>
<!-- Generator: Adobe Illustrator 23.0.2, SVG Export Plug-In . SVG Version: 6.00 Build 0)  -->
<svg version="1.1" id="Layer_1" xmlns="http://www.w3.org/2000/svg" xmlns:xlink="http://www.w3.org/1999/xlink" x="0px" y="0px"
	 viewBox="0 0 42 62" style="enable-background:new 0 0 42 62;" xml:space="preserve">
<style type="text/css">
	.st0{fill:#FAFAFA;}
	.st1{fill:#E6E6E6;}
	.st2{fill:#333333;}
	.st3{fill:#FFFFFF;}
	.st4{fill:none;}
	.st5{fill:#75A4FF;}
	.st6{fill:#5B8DEF;}
	.st7{fill:#16314C;}
	.st8{fill:#E53935;}
	.st9{fill:#F06464;}
	.st10{fill:#FFD23F;}
</style>
<g>
	<g>
		<g>
			<g>
				<path class="st0" d="M37.3,33c0-9-7.3-16.3-16.3-16.3S4.7,24,4.7,33v28h32.7V33H37.3z"/>
			</g>
			<g>
				<path class="st1" d="M21,16.7c-0.7,0-1.3,0.1-1.9,0.1c8.1,1,14.4,7.8,14.4,16.2v28h3.9V33C37.3,24,30,16.7,21,16.7z"/>
			</g>
			<g>
				<path class="st2" d="M21,18.7c7.9,0,14.3,6.4,14.3,14.3v26H6.7V33C6.7,25.1,13.1,18.7,21,18.7 M21,16.7C12,16.7,4.7,24,4.7,33
					v28h32.7V33C37.3,24,30,16.7,21,16.7L21,16.7z"/>
			</g>
		</g>
		<rect x="2.9" y="40.7" class="st2" width="1.6" height="14"/>
		<rect x="37.3" y="40.8" class="st2" width="1.6" height="14"/>
		<rect x="16.4" y="36.1" class="st2" width="9.3" height="1.6"/>
		<g>
			<path class="st3" d="M30.3,34.3c-4.2,0-7.6-3.4-7.6-7.6s3.4-7.6,7.6-7.6s7.6,3.4,7.6,7.6S34.5,34.3,30.3,34.3z"/>
			<path class="st2" d="M30.3,20.2c3.6,0,6.6,2.9,6.6,6.6s-2.9,6.6-6.6,6.6s-6.6-2.9-6.6-6.6S26.7,20.2,30.3,20.2 M30.3,18.2
				c-4.7,0-8.6,3.8-8.6,8.6s3.8,8.6,8.6,8.6s8.6-3.8,8.6-8.6S35.1,18.2,30.3,18.2L30.3,18.2z"/>
		</g>
		<g>
			<path class="st3" d="M11.7,34.3c-4.2,0-7.6-3.4-7.6-7.6s3.4-7.6,7.6-7.6s7.6,3.4,7.6,7.6S15.8,34.3,11.7,34.3z"/>
			<path class="st2" d="M11.7,20.2c3.6,0,6.6,2.9,6.6,6.6s-2.9,6.6-6.6,6.6c-3.6,0-6.6-2.9-6.6-6.6S8.1,20.2,11.7,20.2 M11.7,18.2
				c-4.7,0-8.6,3.8-8.6,8.6s3.8,8.6,8.6,8.6s8.6-3.8,8.6-8.6S16.4,18.2,11.7,18.2L11.7,18.2z"/>
		</g>
		<g>
			<path class="st1" d="M7,26.8h2.3c0-1.3,1-2.3,2.3-2.3v-2.3C9.1,22.1,7,24.2,7,26.8z"/>
		</g>
		<g>
			<path class="st1" d="M25.7,26.8H28c0-1.3,1-2.3,2.3-2.3v-2.3C27.8,22.1,25.7,24.2,25.7,26.8z"/>
		</g>
		<g>
			<polygon class="st2" points="19.4,47.6 17.7,42.6 24.3,42.6 22.6,47.6 			"/>
			<path class="st2" d="M22.9,43.6l-1,3h-1.8l-1-3H22.9 M25.7,41.6h-9.3l2.3,7h4.7L25.7,41.6L25.7,41.6z"/>
		</g>
		<g>
			<polygon class="st2" points="18.2,54.5 19.4,49.6 22.6,49.6 23.8,54.5 21,57.9 			"/>
			<path class="st2" d="M21.8,50.6l0.9,3.7l-1.7,2l-1.7-2l0.9-3.7H21.8 M23.3,48.6h-4.7L17,54.8l3.9,4.7l3.9-4.7L23.3,48.6
				L23.3,48.6z"/>
		</g>
		<g>
			
				<rect x="8.9" y="35.2" transform="matrix(0.342 -0.9397 0.9397 0.342 -32.0019 38.9039)" class="st3" width="5.8" height="14.3"/>
			<path class="st2" d="M6.9,38.4l11.6,4.2l-1.3,3.5L5.6,42L6.9,38.4 M5.7,35.9L3,43.2l15.3,5.6l2.7-7.3L5.7,35.9L5.7,35.9z"/>
		</g>
		<g>
			
				<rect x="22.8" y="39.4" transform="matrix(0.9397 -0.342 0.342 0.9397 -12.6606 12.7936)" class="st3" width="14.3" height="5.8"/>
			<path class="st2" d="M35.1,38.4l1.3,3.5l-11.6,4.2l-1.3-3.5L35.1,38.4 M36.3,35.9L21,41.5l2.7,7.3L39,43.2L36.3,35.9L36.3,35.9z"
				/>
		</g>
		<rect class="st4" width="42" height="61"/>
	</g>
</g>
<g id="Layer_3">
</g>
<g>
	<rect x="2.6" y="-59.1" class="st2" width="2" height="14"/>
	<path class="st2" d="M20.9-83.3c-9,0-16.3,7.3-16.3,16.3v28h32.7v-28C37.2-76,29.9-83.3,20.9-83.3L20.9-83.3z"/>
	<path class="st3" d="M20.9-81.3c7.9,0,14.3,6.4,14.3,14.3v26H6.6v-26C6.6-74.9,13-81.3,20.9-81.3"/>
	<path class="st1" d="M27.1-79.9c3.9,3,6.3,7.6,6.3,12.9v26h1.8v-26C35.2-72.7,31.9-77.6,27.1-79.9z"/>
	<rect x="37.4" y="-59.1" class="st2" width="2" height="14"/>
	<rect x="16.3" y="-63.9" class="st2" width="9.3" height="1.6"/>
	<path class="st2" d="M30.2-81.8c-4.7,0-8.6,3.8-8.6,8.6s3.8,8.6,8.6,8.6s8.6-3.8,8.6-8.6S35-81.8,30.2-81.8L30.2-81.8z"/>
	<path class="st2" d="M11.6-81.8C6.9-81.8,3-78,3-73.2s3.8,8.6,8.6,8.6s8.6-3.8,8.6-8.6S16.3-81.8,11.6-81.8L11.6-81.8z"/>
	<path class="st3" d="M11.6-79.8c3.6,0,6.6,2.9,6.6,6.6s-2.9,6.6-6.6,6.6C8-66.6,5-69.5,5-73.2S8-79.8,11.6-79.8"/>
	<path class="st1" d="M6.9-73.2h2.3c0-1.3,1-2.3,2.3-2.3v-2.3C9-77.9,6.9-75.8,6.9-73.2z"/>
	<path class="st3" d="M30.2-79.8c3.6,0,6.6,2.9,6.6,6.6s-2.9,6.6-6.6,6.6s-6.6-2.9-6.6-6.6S26.6-79.8,30.2-79.8"/>
	<path class="st1" d="M25.6-73.2h2.3c0-1.3,1-2.3,2.3-2.3v-2.3C27.7-77.9,25.6-75.8,25.6-73.2z"/>
	<path class="st2" d="M37.3-62.3H27.2L21-57.6l-5.8-4.7H4.7v21.8h32.7L37.3-62.3L37.3-62.3z"/>
	<polyline class="st3" points="35.3,-60.3 35.3,-42.5 6.7,-42.5 6.7,-60.3 14.4,-60.3 19.7,-56.1 20.9,-55.1 22.1,-56 27.8,-60.3 
		35.3,-60.3 	"/>
	<path class="st2" d="M34.1-62.3h-6.2v7h-14v-7H7.7v7H4.6V-39h32.7v-16.3h-3.2V-62.3L34.1-62.3z"/>
	<polyline class="st5" points="32.2,-60.3 32.2,-55.3 32.2,-53.3 34.2,-53.3 35.3,-53.3 35.3,-41 6.7,-41 6.7,-53.3 7.7,-53.3 
		9.7,-53.3 9.7,-55.3 9.7,-60.3 11.9,-60.3 11.9,-55.3 11.9,-53.3 13.9,-53.3 27.9,-53.3 29.9,-53.3 29.9,-55.3 29.9,-60.3 
		32.2,-60.3 	"/>
	<polygon class="st6" points="33.5,-53.3 33.5,-41 35.3,-41 35.3,-53.3 34.2,-53.3 	"/>
	<rect x="27.2" y="-51.4" class="st3" width="7.8" height="3.9"/>
	<polygon class="st7" points="21.8,-53.8 20.2,-53.8 19.4,-50.7 19.4,-49.1 22.6,-49.1 22.6,-50.7 	"/>
	<rect y="-100" class="st4" width="42" height="61"/>
</g>
<g>
	<path class="st2" d="M-21-83.3c-9,0-16.3,7.3-16.3,16.3v28h32.7v-28C-4.7-76-12-83.3-21-83.3L-21-83.3z"/>
	<path class="st3" d="M-21-81.3c7.9,0,14.3,6.4,14.3,14.3v26h-28.6v-26C-35.3-74.9-28.9-81.3-21-81.3"/>
	<path class="st1" d="M-14.8-79.9c3.9,3,6.3,7.6,6.3,12.9v26h1.8v-26C-6.7-72.7-10-77.6-14.8-79.9z"/>
	<rect x="-39.3" y="-59.1" class="st2" width="2" height="14"/>
	<rect x="-4.6" y="-59.1" class="st2" width="2" height="14"/>
	<rect x="-25.6" y="-63.9" class="st2" width="9.3" height="1.6"/>
	<path class="st2" d="M-11.7-81.8c-4.7,0-8.6,3.8-8.6,8.6s3.8,8.6,8.6,8.6s8.6-3.8,8.6-8.6S-6.9-81.8-11.7-81.8L-11.7-81.8z"/>
	<path class="st2" d="M-30.3-81.8c-4.7,0-8.6,3.8-8.6,8.6s3.8,8.6,8.6,8.6s8.6-3.8,8.6-8.6S-25.6-81.8-30.3-81.8L-30.3-81.8z"/>
	<path class="st3" d="M-30.3-79.8c3.6,0,6.6,2.9,6.6,6.6s-2.9,6.6-6.6,6.6c-3.6,0-6.6-2.9-6.6-6.6S-33.9-79.8-30.3-79.8"/>
	<path class="st1" d="M-35-73.2h2.3c0-1.3,1-2.3,2.3-2.3v-2.3C-32.9-77.9-35-75.8-35-73.2z"/>
	<path class="st3" d="M-11.7-79.8c3.6,0,6.6,2.9,6.6,6.6s-2.9,6.6-6.6,6.6s-6.6-2.9-6.6-6.6S-15.3-79.8-11.7-79.8"/>
	<path class="st1" d="M-16.3-73.2h2.3c0-1.3,1-2.3,2.3-2.3v-2.3C-14.2-77.9-16.3-75.8-16.3-73.2z"/>
	<polygon class="st2" points="-18.6,-51.4 -16.3,-58.4 -25.6,-58.4 -23.3,-51.4 -23.4,-51.4 -25,-45.2 -21.1,-40.5 -17.2,-45.2 
		-18.7,-51.4 	"/>
	<path class="st2" d="M-36.3-64.1l-2.7,7.3l15.3,5.6l2.7-7.3L-36.3-64.1L-36.3-64.1z"/>
	<polyline class="st3" points="-35.1,-61.6 -23.5,-57.4 -24.8,-53.9 -36.4,-58 -35.1,-61.6 	"/>
	<path class="st2" d="M-5.7-64.1L-21-58.5l2.7,7.3L-3-56.8L-5.7-64.1L-5.7-64.1z"/>
	<rect x="-42" y="-100" class="st4" width="42" height="61"/>
	<polyline class="st3" points="-6.9,-61.6 -5.6,-58.1 -17.2,-53.9 -18.5,-57.4 -6.9,-61.6 	"/>
</g>
<g>
	<path class="st2" d="M65.3-93.4h-4.7c-7.7,0-14,4.7-14,12.4c0,0,0,5.2,0,5.4h32.6c0-0.3,0-5.4,0-5.4C79.3-88.7,73-93.4,65.3-93.4z"
		/>
	<path class="st8" d="M77.3-77.5H48.7c0-1.1,0-2.4,0-3.4c0-7.2,6.2-10.4,12-10.4l4.6,0c5.8,0,12,3.2,12,10.3
		C77.3-80,77.3-78.6,77.3-77.5z"/>
	<path class="st2" d="M83.2-78.3H42.8V-62h40.4L83.2-78.3L83.2-78.3z"/>
	<polyline class="st8" points="81.2,-76.3 81.2,-64 44.8,-64 44.8,-76.3 81.2,-76.3 	"/>
	<rect x="44.6" y="-59.1" class="st2" width="2" height="14"/>
	<path class="st2" d="M63-83.3c-9,0-16.3,7.3-16.3,16.3v28h32.7v-28C79.2-76,71.9-83.3,63-83.3L63-83.3z"/>
	<path class="st3" d="M63-81.3c7.9,0,14.3,6.4,14.3,14.3v26H48.6v-26C48.6-74.9,55-81.3,63-81.3"/>
	<path class="st1" d="M69.1-79.9c3.9,3,6.3,7.6,6.3,12.9v26h1.8v-26C77.2-72.7,73.9-77.6,69.1-79.9z"/>
	<rect x="79.3" y="-59.1" class="st2" width="2" height="14"/>
	<rect x="58.3" y="-63.9" class="st2" width="9.3" height="1.6"/>
	<rect x="58.4" y="-63.9" class="st2" width="9.3" height="1.6"/>
	<path class="st2" d="M80.1-81.8H45.9c-1.7,0-3.1,1.4-3.1,3.1l0,0c0,1.7,1.4,3.1,3.1,3.1h34.2c1.7,0,3.1-1.4,3.1-3.1l0,0
		C83.2-80.4,81.8-81.8,80.1-81.8L80.1-81.8z"/>
	<path class="st2" d="M63-95.4L63-95.4c-2.4,0-4.3,1.6-4.3,3.7v6.7c0,2,1.9,3.7,4.3,3.7l0,0c2.4,0,4.3-1.6,4.3-3.7v-6.7
		C67.3-93.7,65.4-95.4,63-95.4L63-95.4z"/>
	<rect x="46.7" y="-60.8" class="st2" width="32.7" height="21.8"/>
	<polyline class="st9" points="77.3,-58.8 77.3,-41 48.7,-41 48.7,-58.8 77.3,-58.8 	"/>
	<rect x="59.9" y="-58.8" class="st8" width="6.2" height="17.8"/>
	<rect x="56.8" y="-55.3" class="st10" width="12.4" height="4.7"/>
	<rect x="42" y="-100" class="st4" width="42" height="61"/>
	<path class="st9" d="M63-93.4c1.2,0,2.3,0.8,2.3,1.7v6.7c0,0.9-1.1,1.7-2.3,1.7s-2.3-0.8-2.3-1.7v-6.7C60.7-92.6,61.8-93.4,63-93.4
		"/>
	<path class="st9" d="M80.1-79.8c0.6,0,1.1,0.5,1.1,1.1s-0.5,1.1-1.1,1.1H45.9c-0.6,0-1.1-0.5-1.1-1.1s0.5-1.1,1.1-1.1H80.1"/>
	<path class="st2" d="M72.2-81.8c-4.7,0-8.6,3.8-8.6,8.6s3.8,8.6,8.6,8.6c4.8,0,8.6-3.8,8.6-8.6S77-81.8,72.2-81.8L72.2-81.8z"/>
	<path class="st2" d="M53.6-81.8C49-81.8,45-78,45-73.2s3.8,8.6,8.6,8.6s8.6-3.8,8.6-8.6S58.3-81.8,53.6-81.8L53.6-81.8z"/>
	<path class="st3" d="M53.6-79.8c3.6,0,6.6,2.9,6.6,6.6s-2.9,6.6-6.6,6.6c-3.6,0-6.6-2.9-6.6-6.6S50-79.8,53.6-79.8"/>
	<path class="st1" d="M49-73.2h2.3c0-1.3,1-2.3,2.3-2.3v-2.3C51-77.9,49-75.8,49-73.2z"/>
	<path class="st3" d="M72.2-79.8c3.6,0,6.6,2.9,6.6,6.6s-2.9,6.6-6.6,6.6c-3.7,0-6.6-2.9-6.6-6.6S68.7-79.8,72.2-79.8"/>
	<path class="st1" d="M67.7-73.2h2.3c0-1.3,1-2.3,2.3-2.3v-2.3C69.8-77.9,67.7-75.8,67.7-73.2z"/>
	<path class="st2" d="M63-88.6c-4.7,0-6,4.7-6,4.7s2,8,6,8s6-8,6-8S67.7-88.6,63-88.6L63-88.6z"/>
	<path class="st10" d="M63-86.6c2.4,0,3.5,1.8,3.9,2.7C66.1-81.3,64.5-78,63-78s-3.2-3.3-3.9-5.9C59.5-84.7,60.6-86.6,63-86.6"/>
</g>
</svg>
