<?xml version="1.0" encoding="utf-8"?>
<!-- Generator: Adobe Illustrator 23.0.2, SVG Export Plug-In . SVG Version: 6.00 Build 0)  -->
<svg version="1.1" id="Layer_1" xmlns="http://www.w3.org/2000/svg" xmlns:xlink="http://www.w3.org/1999/xlink" x="0px" y="0px"
	 viewBox="0 0 92 130" style="enable-background:new 0 0 92 130;" xml:space="preserve">
<style type="text/css">
	.st0{fill:#333333;}
	.st1{fill:#808080;}
	.st2{fill:#FFFFFF;}
	.st3{fill:#E6E6E6;}
	.st4{fill:none;stroke:#333333;stroke-width:4;stroke-linecap:round;stroke-linejoin:round;stroke-miterlimit:10;}
	.st5{fill:none;}
</style>
<g>
	<path class="st0" d="M74,56.1H18c-0.8,0-1.5-0.7-1.5-1.5v-10c0-0.8,0.7-1.5,1.5-1.5h56c0.8,0,1.5,0.7,1.5,1.5v10
		C75.5,55.4,74.8,56.1,74,56.1z"/>
	<rect x="19.5" y="46.1" class="st1" width="53" height="7"/>
	<path class="st0" d="M77,49.1H15c-0.8,0-1.5-0.7-1.5-1.5V38C13.5,20.4,28.1,6.1,46,6.1S78.5,20.4,78.5,38v9.6
		C78.5,48.4,77.8,49.1,77,49.1z"/>
	<path class="st2" d="M16.5,46.1h59V38C75.5,22.1,62.3,9.1,46,9.1S16.5,22.1,16.5,38V46.1z"/>
	<path class="st3" d="M46,9.1c-0.1,0-0.2,0-0.3,0C58.1,13.1,67,24.5,67,38v8.1h8.5V38C75.5,22.1,62.3,9.1,46,9.1z"/>
	<path class="st0" d="M64,44.1c-9.1,0-16.5-7.4-16.5-16.5S54.9,11.1,64,11.1s16.5,7.4,16.5,16.5S73.1,44.1,64,44.1z"/>
	<circle class="st2" cx="64" cy="27.6" r="13.5"/>
	<path class="st3" d="M54,27.8h5c0-2.8,2.2-5,5-5v-5C58.5,17.8,54,22.3,54,27.8z"/>
	<path class="st0" d="M27,44.1c-9.1,0-16.5-7.4-16.5-16.5S17.9,11.1,27,11.1s16.5,7.4,16.5,16.5S36.1,44.1,27,44.1z"/>
	<circle class="st2" cx="27" cy="27.6" r="13.5"/>
	<path class="st3" d="M17,27.8h5c0-2.8,2.2-5,5-5v-5C21.5,17.8,17,22.3,17,27.8z"/>
	<path class="st0" d="M46,89.1c-17.9,0-32.5-14.3-32.5-31.9v-3.6c0-0.8,0.7-1.5,1.5-1.5h62c0.8,0,1.5,0.7,1.5,1.5v3.6
		C78.5,74.8,63.9,89.1,46,89.1z"/>
	<path class="st2" d="M16.5,55.1v2.1c0,15.9,13.2,28.9,29.5,28.9s29.5-13,29.5-28.9v-2.1H16.5z"/>
	<path class="st3" d="M36,80.6c-3.1,0-6.1-0.4-8.9-1.3c5.1,4.2,11.7,6.8,18.9,6.8c16.3,0,29.5-13,29.5-28.9v-2.1h-8.9
		C64.2,69.6,51.5,80.6,36,80.6z"/>
	<polyline class="st4" points="14.4,54.5 5.6,61 20.4,61 	"/>
	<path class="st0" d="M90,63H2c-0.8,0-1.5,0.7-1.5,1.5v64c0,0.8,0.7,1.5,1.5,1.5h88c0.8,0,1.5-0.7,1.5-1.5v-64
		C91.5,63.7,90.8,63,90,63z"/>
	<rect x="3.5" y="66" class="st1" width="85" height="5"/>
	<rect class="st5" width="92" height="130"/>
</g>
</svg>
