<?xml version="1.0" encoding="utf-8"?>
<!-- Generator: Adobe Illustrator 23.0.2, SVG Export Plug-In . SVG Version: 6.00 Build 0)  -->
<svg version="1.1" id="Layer_2" xmlns="http://www.w3.org/2000/svg" xmlns:xlink="http://www.w3.org/1999/xlink" x="0px" y="0px"
	 viewBox="0 0 56 56" style="enable-background:new 0 0 56 56;" xml:space="preserve">
<style type="text/css">
	.st0{opacity:0.3;}
	.st1{fill:#FFEBEE;}
	.st2{fill:#FFFFFF;}
	.st3{fill:#F06464;}
	.st4{fill:none;}
</style>
<g>
	<g class="st0">
		<path class="st1" d="M45.5,7.5c0.8,0,1.6,0.3,2.1,0.9c1.2,1.2,1.2,3.1,0,4.2L32.2,28l15.4,15.4c1.2,1.2,1.2,3.1,0,4.2
			c-0.6,0.6-1.3,0.9-2.1,0.9s-1.6-0.3-2.1-0.9L28,32.2L12.6,47.6c-0.6,0.6-1.3,0.9-2.1,0.9s-1.6-0.3-2.1-0.9c-1.2-1.2-1.2-3.1,0-4.2
			L23.8,28L8.4,12.6c-1.2-1.2-1.2-3.1,0-4.2c0.6-0.6,1.3-0.9,2.1-0.9s1.6,0.3,2.1,0.9L28,23.8L43.4,8.4C43.9,7.8,44.7,7.5,45.5,7.5
			 M45.5,5.5C44.2,5.5,42.9,6,42,7l-14,14L14,7c-0.9-0.9-2.2-1.5-3.5-1.5C9.2,5.5,7.9,6,7,7C5,8.9,5,12.1,7,14l14,14L7,42
			C5,43.9,5,47.1,7,49c0.9,0.9,2.2,1.5,3.5,1.5S13.1,50,14,49l14-14l14,14c0.9,0.9,2.2,1.5,3.5,1.5c1.3,0,2.6-0.5,3.5-1.5
			c1.9-1.9,1.9-5.1,0-7.1l-14-14l14-14C51,12.1,51,8.9,49,7C48.1,6,46.8,5.5,45.5,5.5L45.5,5.5z"/>
	</g>
	<g>
		<path class="st2" d="M45.5,48c-0.7,0-1.3-0.3-1.8-0.7L28,31.5L12.3,47.3c-0.5,0.5-1.1,0.7-1.8,0.7s-1.3-0.3-1.8-0.7
			c-1-1-1-2.6,0-3.5L24.5,28L8.7,12.3c-1-1-1-2.6,0-3.5C9.2,8.3,9.8,8,10.5,8s1.3,0.3,1.8,0.7L28,24.5L43.7,8.7
			C44.2,8.3,44.8,8,45.5,8s1.3,0.3,1.8,0.7c0.5,0.5,0.7,1.1,0.7,1.8c0,0.7-0.3,1.3-0.7,1.8L31.5,28l15.7,15.7c1,1,1,2.6,0,3.5
			C46.8,47.7,46.2,48,45.5,48z"/>
		<path class="st3" d="M45.5,8.5c0.5,0,1,0.2,1.4,0.6c0.8,0.8,0.8,2,0,2.8L30.8,28l16.1,16.1c0.8,0.8,0.8,2,0,2.8
			c-0.4,0.4-0.9,0.6-1.4,0.6s-1-0.2-1.4-0.6L28,30.8L11.9,46.9c-0.4,0.4-0.9,0.6-1.4,0.6s-1-0.2-1.4-0.6c-0.8-0.8-0.8-2,0-2.8
			L25.2,28L9.1,11.9c-0.8-0.8-0.8-2,0-2.8c0.4-0.4,0.9-0.6,1.4-0.6s1,0.2,1.4,0.6L28,25.2L44.1,9.1C44.5,8.7,45,8.5,45.5,8.5
			 M45.5,7.5c-0.8,0-1.6,0.3-2.1,0.9L28,23.8L12.6,8.4c-0.6-0.6-1.3-0.9-2.1-0.9S8.9,7.8,8.4,8.4c-1.2,1.2-1.2,3.1,0,4.2L23.8,28
			L8.4,43.4c-1.2,1.2-1.2,3.1,0,4.2c0.6,0.6,1.3,0.9,2.1,0.9s1.6-0.3,2.1-0.9L28,32.2l15.4,15.4c0.6,0.6,1.3,0.9,2.1,0.9
			s1.6-0.3,2.1-0.9c1.2-1.2,1.2-3.1,0-4.2L32.2,28l15.4-15.4c1.2-1.2,1.2-3.1,0-4.2C47.1,7.8,46.3,7.5,45.5,7.5L45.5,7.5z"/>
	</g>
	<rect class="st4" width="56" height="56"/>
</g>
</svg>
