<?xml version="1.0" encoding="utf-8"?>
<!-- Generator: Adobe Illustrator 23.0.2, SVG Export Plug-In . SVG Version: 6.00 Build 0)  -->
<svg version="1.1" id="Layer_1" xmlns="http://www.w3.org/2000/svg" xmlns:xlink="http://www.w3.org/1999/xlink" x="0px" y="0px"
	 viewBox="0 0 56 56" style="enable-background:new 0 0 56 56;" xml:space="preserve">
<style type="text/css">
	.st0{fill:#FFFFFF;}
	.st1{opacity:0.5;}
	.st2{fill:#E1F5FE;}
	.st3{fill:#75A4FF;}
</style>
<rect class="st0" width="56" height="56"/>
<g class="st1">
	<g>
		<g>
			<path class="st2" d="M28,7c11.6,0,21,9.4,21,21s-9.4,21-21,21S7,39.6,7,28S16.4,7,28,7 M28,43c8.3,0,15-6.7,15-15s-6.7-15-15-15
				s-15,6.7-15,15S19.7,43,28,43 M28,5C15.3,5,5,15.3,5,28s10.3,23,23,23s23-10.3,23-23S40.7,5,28,5L28,5z M28,41
				c-7.2,0-13-5.8-13-13s5.8-13,13-13s13,5.8,13,13S35.2,41,28,41L28,41z"/>
		</g>
	</g>
</g>
<g>
	<g>
		<path class="st0" d="M28,48.5C16.7,48.5,7.5,39.3,7.5,28S16.7,7.5,28,7.5S48.5,16.7,48.5,28S39.3,48.5,28,48.5z M28,12.5
			c-8.5,0-15.5,7-15.5,15.5s7,15.5,15.5,15.5s15.5-7,15.5-15.5S36.5,12.5,28,12.5z"/>
		<path class="st3" d="M28,8c11,0,20,9,20,20s-9,20-20,20S8,39,8,28S17,8,28,8 M28,44c8.8,0,16-7.2,16-16s-7.2-16-16-16
			c-8.8,0-16,7.2-16,16S19.2,44,28,44 M28,7C16.4,7,7,16.4,7,28s9.4,21,21,21s21-9.4,21-21S39.6,7,28,7L28,7z M28,43
			c-8.3,0-15-6.7-15-15s6.7-15,15-15s15,6.7,15,15S36.3,43,28,43L28,43z"/>
	</g>
</g>
</svg>
