<?xml version="1.0" encoding="utf-8"?>
<!-- Generator: Adobe Illustrator 23.0.2, SVG Export Plug-In . SVG Version: 6.00 Build 0)  -->
<svg version="1.1" id="Layer_1" xmlns="http://www.w3.org/2000/svg" xmlns:xlink="http://www.w3.org/1999/xlink" x="0px" y="0px"
	 viewBox="0 0 140 140" style="enable-background:new 0 0 140 140;" xml:space="preserve">
<style type="text/css">
	.st0{fill:#FFFFFF;stroke:#FF4C2A;stroke-width:3;stroke-linecap:round;stroke-linejoin:round;stroke-miterlimit:10;}
	.st1{fill:#808080;stroke:#333333;stroke-width:3;stroke-linecap:round;stroke-linejoin:round;stroke-miterlimit:10;}
	.st2{fill:#FFFFFF;}
	.st3{fill:#E6E6E6;}
	.st4{fill:none;stroke:#333333;stroke-width:4;stroke-linecap:round;stroke-linejoin:round;stroke-miterlimit:10;}
	.st5{fill:none;stroke:#333333;stroke-width:3;stroke-linecap:round;stroke-linejoin:round;stroke-miterlimit:10;}
	.st6{fill:#FFFFFF;stroke:#333333;stroke-width:3;stroke-linecap:round;stroke-linejoin:round;stroke-miterlimit:10;}
	.st7{fill:#FFFFFF;stroke:#333333;stroke-width:2;stroke-linecap:round;stroke-linejoin:round;stroke-miterlimit:10;}
</style>
<polygon class="st0" points="63.4,89.6 57.4,89.6 53.4,80.1 55.4,70.6 61.4,70.6 "/>
<g>
	<rect x="62.4" y="59.1" class="st1" width="56" height="10"/>
	<path class="st2" d="M90.4,102.1c17.1,0,31-13.6,31-30.4v-3.6h-62v3.6C59.4,88.5,73.3,102.1,90.4,102.1z"/>
	<path class="st3" d="M111.3,68.1c-1.7,15.2-14.8,27-30.8,27c-4.5,0-8.8-0.9-12.6-2.6c5.7,5.9,13.7,9.6,22.6,9.6
		c17.1,0,31-13.6,31-30.4v-3.6H111.3z"/>
	<path class="st2" d="M90.4,22.1c-17.1,0-31,13.6-31,30.4v9.6h62v-9.6C121.4,35.7,107.6,22.1,90.4,22.1z"/>
	<path class="st3" d="M90.4,22.1c-1.7,0-3.4,0.1-5,0.4c14.7,2.3,26,14.9,26,30v9.6h10v-9.6C121.4,35.7,107.6,22.1,90.4,22.1z"/>
	<line class="st4" x1="100.4" y1="97.1" x2="100.4" y2="117.1"/>
	<line class="st4" x1="80.4" y1="97.1" x2="80.4" y2="117.1"/>
	<path class="st5" d="M90.4,22.1c-17.1,0-31,13.6-31,30.4v9.6h62v-9.6C121.4,35.7,107.6,22.1,90.4,22.1z"/>
	<path class="st5" d="M90.4,102.1c17.1,0,31-13.6,31-30.4v-3.6h-62v3.6C59.4,88.5,73.3,102.1,90.4,102.1z"/>
	<polyline class="st6" points="58.2,81.6 61.4,105.1 86.4,105.1 86.4,75.1 75.4,68.1 58.4,68.1 57.5,71.3 	"/>
	<path class="st6" d="M126.7,82.3l-4.2-14.2l0,0h-17l-11,7v30h26V89.8l2-0.2C125.6,88.8,127.5,85.5,126.7,82.3z"/>
	<circle class="st6" cx="108.4" cy="42.1" r="15"/>
	<g>
		<path class="st3" d="M98.4,42.4h5c0-2.8,2.2-5,5-5v-5C102.9,32.4,98.4,36.9,98.4,42.4z"/>
	</g>
	<circle class="st6" cx="71.4" cy="42.1" r="15"/>
	<g>
		<path class="st3" d="M61.4,42.4h5c0-2.8,2.2-5,5-5v-5C65.9,32.4,61.4,36.9,61.4,42.4z"/>
	</g>
	<rect x="100.4" y="86.1" class="st7" width="14" height="12"/>
	<line class="st5" x1="120.4" y1="98.1" x2="120.4" y2="82.8"/>
</g>
</svg>
